<?xml version="1.0" encoding="UTF-8"?>
<!DOCTYPE svg PUBLIC "-//W3C//DTD SVG 1.0//EN" "http://www.w3.org/TR/2001/REC-SVG-20010904/DTD/svg10.dtd">
<!-- Creator: CorelDRAW Home & Student X8 -->
<svg xmlns="http://www.w3.org/2000/svg" xml:space="preserve" width="210mm" height="297mm" version="1.0" style="shape-rendering:geometricPrecision; text-rendering:geometricPrecision; image-rendering:optimizeQuality; fill-rule:evenodd; clip-rule:evenodd"
viewBox="0 0 21000 29700"
 xmlns:xlink="http://www.w3.org/1999/xlink">
 <defs>
  <style type="text/css">
   <![CDATA[
    .str1 {stroke:#2E72A9;stroke-width:7.62}
    .str0 {stroke:black;stroke-width:7.62}
    .fil0 {fill:none}
    .fil1 {fill:none;fill-rule:nonzero}
    .fil2 {fill:#2E72A9}
    .fil3 {fill:#2E72A9;fill-rule:nonzero}
   ]]>
  </style>
 </defs>
 <g id="Ebene_x0020_1">
  <metadata id="CorelCorpID_0Corel-Layer"/>
  <path class="fil0 str0" d="M10852 12759l-10 10 0 0 -50 98 -17 108 15 94 2 14 50 98 77 77 98 50 108 17 108 -17 98 -50 77 -77 50 -98 2 -14 2 -8 13 -86 -13 -86 -4 -22 -50 -98 -77 -77 -98 -50 -108 -17 -31 5 -13 2 10 -7 28 -21 71 -64 64 -71 57 -77 49 -82 28 -60 13 -27 32 -90 24 -93 5 -34 9 -60 4 -96 -4 -96 -9 -60 -5 -34 -24 -93 -32 -90 -22 -46 -19 -41 -49 -82 -57 -77 -64 -71 -71 -64 -77 -57 -82 -49 -87 -41 -90 -32 -8 -2 -85 -21 -48 -8 -46 -7 -96 -4 0 0 -96 4 -94 15 -93 23 -90 32 -87 41 -82 49 -77 57 -58 53 -13 11 -64 71 -57 77 -49 82 -41 87 -32 90 -23 93 -15 94 -4 96 4 96 15 94 23 93 32 90 13 27 28 60 49 82 57 77 64 71 13 11 58 53 77 57 82 49 87 41 90 32 93 24 94 14 96 4 0 0 96 -4 46 -7 48 -7 85 -22 8 -2 69 -24m-7352 -4909l5200 0 800 0 25 0 975 0 400 0 850 0 820 0 260 0 2040 0 260 0 2370 0 0 4230 0 1920 0 350 0 1000 0 350 0 400 0 1780 0 3570 0 400 -7000 0 -975 0 -25 0 -250 0 -550 0 -5200 0 0 -14000m6648 9091l10 -10 0 0 50 -98 12 -77 5 -31 -17 -108 -50 -98 -77 -77 -98 -50 -108 -17 -108 17 -98 50 -77 77 -50 98 -17 108 5 31 12 77 50 98 77 77 98 50 108 17 31 -5 13 -2 -10 7 -28 21 -58 53 -13 11 -4 5 -60 66 -57 77 -49 82 -41 87 -32 90 -23 93 -15 94 -4 96 4 96 6 38 9 56 23 93 32 90 41 87 49 82 57 77 64 71 13 11 58 53 77 57 82 49 87 41 90 32 81 21 12 3 94 14 96 4 0 0 96 -4 94 -14 12 -3 81 -21 90 -32 27 -13 60 -28 82 -49 77 -57 71 -64 64 -71 57 -77 49 -82 41 -87 32 -90 24 -93 5 -34 9 -60 4 -96 -4 -96 -9 -60 -5 -34 -24 -93 -32 -90 -41 -87 -49 -82 -57 -77 -60 -66 -4 -5 -71 -64 -77 -57 -82 -49 -60 -28 -27 -13 -90 -32 -93 -23 -48 -8 -46 -7 -96 -4 0 0 -96 4 -94 15 -85 21 -8 2 -69 24m-837 -2477l-61 386 61 386 148 291 30 58 11 11 265 266 349 177 386 61 386 -61 349 -177 277 -277 29 -58 148 -291 61 -386 -61 -386 -177 -349 -277 -276 -349 -178 -386 -61 -386 61 -349 178 -265 265 -11 11 -178 349m2540 332l-9 54 9 54 20 40 5 9 39 39 48 25 55 8 54 -8 4 -2 45 -23 38 -39 25 -49 9 -54 -9 -54 -25 -49 -38 -39 -2 0 -47 -25 -54 -8 -55 8 -47 25 -1 0 -39 39 -5 9 -20 40m-2957 -913l10 5 88 45 108 17 108 -17 88 -45 10 -5 77 -77 50 -98 17 -108 -17 -108 -50 -98 -77 -77 -98 -50 -108 -17 -96 15 -12 2 -98 50 -77 77 -50 98 -17 108 17 108 50 98 77 77m6230 -1893l6 -40 -6 -40 -19 -37 -28 -28 -9 -5 -28 -14 -40 -6 -40 6 -28 14 -9 5 -28 28 -19 37 -6 40 6 40 19 37 28 28 20 10 17 9 40 6 40 -6 37 -19 28 -28 19 -37m-4486 9450l62 10 62 -10 56 -28 44 -44 28 -56 8 -51 2 -11 -10 -62 -28 -56 -44 -44 -56 -28 -62 -10 -62 10 -56 28 -44 44 -28 56 -10 62 1 11 9 51 28 56 44 44 56 28m4238 -3730l-6 40 4 30 2 10 19 37 28 28 37 19 40 6 40 -6 37 -19 28 -28 19 -37 2 -10 4 -30 -6 -40 -19 -37 -28 -28 -37 -19 -40 -6 -40 6 -37 19 -28 28 -19 37m-2300 -5800l-6 40 6 40 19 37 28 28 37 19 30 5 10 1 40 -6 37 -19 28 -28 19 -37 6 -40 -6 -40 -19 -37 -28 -28 -9 -5 -28 -14 -40 -6 -40 6 -28 14 -9 5 -28 28 -19 37m-1686 -3398l10 -62 -10 -62 -28 -56 -44 -44 -56 -28 -62 -10 -62 10 -56 28 -44 44 -28 56 -10 62 10 62 26 52 2 4 44 44 56 28 62 10 62 -10 56 -28 44 -44 2 -4 26 -52m1936 9268l4 -30 -6 -40 -19 -37 -28 -28 -37 -19 -40 -6 -40 6 -37 19 -28 28 -19 37 -6 40 4 30 2 10 19 37 28 28 37 19 40 6 40 -6 37 -19 28 -28 19 -37 2 -10m1632 -3430l0 -350 -1888 0 -313 0 0 1025 0 675 313 0 1888 0 0 -350 0 -1000z"/>
  <g id="_590815584">
   <line class="fil0 str1" x1="3500" y1="7600" x2="3500" y2= "6363" />
   <line class="fil0 str1" x1="17500" y1="7600" x2="17500" y2= "6363" />
   <g>
    <line class="fil1 str1" x1="9394" y1="6613" x2="3500" y2= "6613" />
    <polygon id="1" class="fil2" points="3873,6513 3500,6613 3873,6713 "/>
   </g>
   <g>
    <line class="fil1 str1" x1="17500" y1="6613" x2="11698" y2= "6613" />
    <polygon id="1" class="fil2" points="17127,6513 17500,6613 17127,6713 "/>
   </g>
  </g>
  <path class="fil3" d="M9635 6765l-37 0 0 -237c-9,8 -21,17 -36,25 -14,9 -27,15 -39,20l0 -36c21,-10 39,-22 55,-36 15,-14 26,-27 33,-40l24 0 0 304z"/>
  <path id="1" class="fil3" d="M9850 6765l0 -72 -132 0 0 -35 138 -196 31 0 0 196 41 0 0 35 -41 0 0 72 -37 0zm0 -107l0 -136 -96 136 96 0z"/>
  <path id="2" class="fil3" d="M9966 6615c0,-35 4,-64 11,-86 7,-22 18,-39 33,-51 14,-12 33,-17 55,-17 16,0 30,3 42,9 13,7 23,16 31,29 8,12 14,27 18,45 5,17 7,41 7,71 0,36 -3,65 -11,87 -7,22 -18,38 -32,50 -15,12 -33,18 -55,18 -29,0 -52,-10 -69,-31 -20,-26 -30,-67 -30,-124zm38 1c0,49 6,83 18,99 11,16 26,25 43,25 17,0 31,-9 43,-25 11,-17 17,-50 17,-99 0,-50 -6,-84 -17,-100 -12,-16 -26,-24 -44,-24 -17,0 -31,7 -41,21 -13,19 -19,53 -19,103z"/>
  <path id="3" class="fil3" d="M10221 6765l0 -42 43 0 0 42c0,16 -3,28 -9,38 -5,9 -14,17 -26,22l-10 -16c8,-3 13,-9 17,-15 4,-7 6,-16 6,-29l-21 0z"/>
  <path id="4" class="fil3" d="M10319 6615c0,-35 4,-64 11,-86 7,-22 18,-39 33,-51 14,-12 33,-17 55,-17 16,0 30,3 43,9 12,7 22,16 30,29 8,12 14,27 19,45 4,17 6,41 6,71 0,36 -3,65 -11,87 -7,22 -18,38 -32,50 -15,12 -33,18 -55,18 -29,0 -52,-10 -69,-31 -20,-26 -30,-67 -30,-124zm38 1c0,49 6,83 18,99 11,16 26,25 43,25 17,0 31,-9 43,-25 11,-17 17,-50 17,-99 0,-50 -6,-84 -17,-100 -12,-16 -26,-24 -44,-24 -17,0 -30,7 -41,21 -12,19 -19,53 -19,103z"/>
  <path id="5" class="fil3" d="M10555 6615c0,-35 3,-64 11,-86 7,-22 18,-39 32,-51 15,-12 33,-17 55,-17 16,0 31,3 43,9 12,7 22,16 30,29 8,12 14,27 19,45 5,17 7,41 7,71 0,36 -4,65 -11,87 -7,22 -18,38 -33,50 -14,12 -33,18 -55,18 -29,0 -52,-10 -69,-31 -20,-26 -29,-67 -29,-124zm38 1c0,49 5,83 17,99 12,16 26,25 43,25 17,0 32,-9 43,-25 12,-17 18,-50 18,-99 0,-50 -6,-84 -18,-100 -11,-16 -26,-24 -43,-24 -17,0 -31,7 -41,21 -13,19 -19,53 -19,103z"/>
  <path id="6" class="fil3" d="M10918 6765l0 -220 33 0 0 31c7,-10 16,-19 28,-26 11,-6 24,-9 39,-9 16,0 29,3 40,10 10,6 17,16 22,28 17,-26 40,-38 68,-38 21,0 38,6 50,18 12,12 18,30 18,55l0 151 -37 0 0 -138c0,-15 -2,-26 -4,-32 -3,-7 -7,-12 -13,-16 -7,-4 -14,-6 -23,-6 -15,0 -28,5 -38,15 -11,10 -16,27 -16,49l0 128 -37 0 0 -143c0,-16 -3,-29 -9,-37 -6,-8 -16,-12 -30,-12 -10,0 -20,3 -29,8 -9,6 -15,14 -19,24 -4,11 -6,26 -6,46l0 114 -37 0z"/>
  <path id="7" class="fil3" d="M11270 6765l0 -220 34 0 0 31c7,-10 16,-19 27,-26 12,-6 25,-9 39,-9 16,0 30,3 40,10 11,6 18,16 22,28 18,-26 40,-38 68,-38 22,0 39,6 51,18 11,12 17,30 17,55l0 151 -37 0 0 -138c0,-15 -1,-26 -4,-32 -2,-7 -6,-12 -13,-16 -6,-4 -14,-6 -22,-6 -16,0 -28,5 -39,15 -10,10 -15,27 -15,49l0 128 -37 0 0 -143c0,-16 -3,-29 -9,-37 -6,-8 -16,-12 -30,-12 -11,0 -20,3 -29,8 -9,6 -15,14 -19,24 -4,11 -6,26 -6,46l0 114 -38 0z"/>
  <g>
   <line class="fil0 str1" x1="17750" y1="21850" x2="19896" y2= "21850" />
   <line class="fil0 str1" x1="17750" y1="7850" x2="19896" y2= "7850" />
   <g>
    <line class="fil1 str1" x1="19646" y1="15956" x2="19646" y2= "21850" />
    <polygon id="1" class="fil2" points="19546,21477 19646,21850 19746,21477 "/>
   </g>
   <g>
    <line class="fil1 str1" x1="19646" y1="7850" x2="19646" y2= "13652" />
    <polygon id="1" class="fil2" points="19546,8223 19646,7850 19746,8223 "/>
   </g>
  </g>
  <path class="fil3" d="M19798 15715l0 37 -237 0c8,9 17,21 25,36 9,14 15,27 19,39l-36 0c-9,-21 -21,-39 -35,-55 -14,-15 -27,-26 -41,-33l0 -24 305 0z"/>
  <path id="1" class="fil3" d="M19798 15500l-73 0 0 132 -34 0 -196 -138 0 -31 196 0 0 -41 34 0 0 41 73 0 0 37zm-107 0l-136 0 136 96 0 -96z"/>
  <path id="2" class="fil3" d="M19648 15384c-36,0 -64,-4 -86,-11 -22,-7 -39,-18 -51,-33 -12,-14 -18,-33 -18,-55 0,-16 4,-30 10,-42 7,-13 16,-23 29,-31 12,-8 27,-14 45,-18 17,-5 41,-7 71,-7 36,0 65,3 86,11 22,7 39,18 51,32 12,15 18,33 18,55 0,29 -10,52 -31,69 -26,20 -67,30 -124,30zm0 -38c50,0 83,-6 100,-18 16,-11 24,-26 24,-43 0,-17 -8,-31 -24,-43 -17,-11 -50,-17 -100,-17 -50,0 -83,6 -99,17 -16,12 -25,26 -25,44 0,17 8,31 22,41 18,13 53,19 102,19z"/>
  <path id="3" class="fil3" d="M19798 15129l-43 0 0 -43 43 0c15,0 28,3 38,9 9,5 17,14 22,26l-16 10c-4,-8 -9,-13 -15,-17 -7,-4 -17,-6 -29,-6l0 21z"/>
  <path id="4" class="fil3" d="M19648 15031c-36,0 -64,-4 -86,-11 -22,-7 -39,-18 -51,-33 -12,-14 -18,-33 -18,-55 0,-16 4,-30 10,-43 7,-12 16,-22 29,-30 12,-8 27,-14 45,-18 17,-5 41,-7 71,-7 36,0 65,3 86,11 22,7 39,18 51,32 12,15 18,33 18,55 0,29 -10,52 -31,69 -26,20 -67,30 -124,30zm0 -38c50,0 83,-6 100,-18 16,-11 24,-26 24,-43 0,-17 -8,-31 -24,-43 -17,-11 -50,-17 -100,-17 -50,0 -83,6 -99,17 -16,12 -25,26 -25,44 0,17 8,30 22,41 18,12 53,19 102,19z"/>
  <path id="5" class="fil3" d="M19648 14795c-36,0 -64,-3 -86,-11 -22,-7 -39,-18 -51,-32 -12,-15 -18,-33 -18,-55 0,-16 4,-31 10,-43 7,-12 16,-22 29,-30 12,-8 27,-14 45,-19 17,-5 41,-7 71,-7 36,0 65,4 86,11 22,7 39,18 51,33 12,14 18,33 18,55 0,29 -10,52 -31,69 -26,20 -67,29 -124,29zm0 -38c50,0 83,-5 100,-17 16,-12 24,-26 24,-43 0,-17 -8,-32 -24,-43 -17,-12 -50,-18 -100,-18 -50,0 -83,6 -99,18 -16,11 -25,26 -25,43 0,17 8,31 22,41 18,13 53,19 102,19z"/>
  <path id="6" class="fil3" d="M19798 14432l-220 0 0 -33 31 0c-11,-7 -19,-16 -26,-28 -6,-11 -10,-24 -10,-39 0,-16 4,-29 11,-40 6,-10 16,-17 28,-22 -26,-17 -39,-40 -39,-68 0,-21 6,-38 18,-50 13,-12 31,-18 56,-18l151 0 0 38 -138 0c-15,0 -26,1 -33,3 -6,3 -11,7 -15,13 -4,7 -6,14 -6,23 0,15 5,28 15,38 10,11 27,16 49,16l128 0 0 37 -143 0c-16,0 -29,3 -37,9 -8,6 -12,16 -12,30 0,10 2,20 8,29 5,9 13,15 24,19 11,4 26,6 46,6l114 0 0 37z"/>
  <path id="7" class="fil3" d="M19798 14080l-220 0 0 -34 31 0c-11,-7 -19,-16 -26,-27 -6,-12 -10,-25 -10,-39 0,-16 4,-30 11,-40 6,-11 16,-18 28,-22 -26,-18 -39,-40 -39,-68 0,-22 6,-39 18,-51 13,-11 31,-17 56,-17l151 0 0 37 -138 0c-15,0 -26,1 -33,4 -6,2 -11,6 -15,13 -4,6 -6,14 -6,22 0,16 5,28 15,39 10,10 27,15 49,15l128 0 0 37 -143 0c-16,0 -29,3 -37,9 -8,6 -12,16 -12,30 0,11 2,20 8,29 5,9 13,15 24,19 11,4 26,6 46,6l114 0 0 38z"/>
  <g>
   <line class="fil0 str1" x1="10900" y1="8460" x2="10900" y2= "8961" />
   <line class="fil0 str1" x1="10500" y1="8460" x2="10500" y2= "8961" />
   <g>
    <line class="fil1 str1" x1="11833" y1="8711" x2="10900" y2= "8711" />
    <polygon id="1" class="fil2" points="11274,8611 10900,8711 11274,8811 "/>
   </g>
   <g>
    <line class="fil1 str1" x1="10500" y1="8711" x2="9566" y2= "8711" />
    <polygon id="1" class="fil2" points="10126,8611 10500,8711 10126,8811 "/>
   </g>
  </g>
  <path class="fil3" d="M10197 9265l0 -54 -99 0 0 -26 104 -147 23 0 0 147 31 0 0 26 -31 0 0 54 -28 0zm0 -80l0 -102 -71 102 71 0z"/>
  <path id="1" class="fil3" d="M10299 9265l0 -31 32 0 0 31c0,12 -2,22 -6,29 -4,7 -11,13 -20,17l-8 -12c6,-3 11,-7 13,-12 3,-5 5,-12 5,-22l-16 0z"/>
  <path id="2" class="fil3" d="M10372 9153c0,-27 3,-48 9,-65 5,-16 13,-29 24,-38 11,-8 25,-13 41,-13 13,0 23,3 33,8 9,4 16,12 22,21 6,9 11,20 14,34 4,13 5,31 5,53 0,27 -2,49 -8,65 -5,16 -13,29 -24,38 -11,9 -25,13 -42,13 -21,0 -39,-7 -51,-23 -15,-19 -23,-50 -23,-93zm29 0c0,38 4,63 13,75 9,12 20,18 32,18 13,0 24,-6 33,-18 8,-12 13,-37 13,-75 0,-37 -5,-62 -13,-74 -9,-12 -20,-19 -33,-19 -13,0 -23,6 -31,17 -9,14 -14,39 -14,76z"/>
  <path id="3" class="fil3" d="M10549 9153c0,-27 3,-48 8,-65 6,-16 14,-29 25,-38 11,-8 24,-13 41,-13 12,0 23,3 32,8 9,4 17,12 23,21 6,9 10,20 14,34 3,13 5,31 5,53 0,27 -3,49 -8,65 -6,16 -14,29 -25,38 -11,9 -24,13 -41,13 -22,0 -39,-7 -52,-23 -15,-19 -22,-50 -22,-93zm29 0c0,38 4,63 13,75 8,12 19,18 32,18 13,0 24,-6 32,-18 9,-12 13,-37 13,-75 0,-37 -4,-62 -13,-74 -8,-12 -19,-19 -32,-19 -13,0 -23,6 -31,17 -10,14 -14,39 -14,76z"/>
  <path id="4" class="fil3" d="M10821 9265l0 -164 26 0 0 23c5,-8 12,-15 20,-19 9,-5 18,-8 29,-8 13,0 23,3 30,8 8,5 14,12 17,21 13,-19 30,-29 51,-29 16,0 29,5 38,14 8,9 13,23 13,42l0 112 -28 0 0 -103c0,-11 -1,-19 -3,-24 -2,-5 -5,-9 -10,-12 -4,-3 -10,-5 -16,-5 -12,0 -22,4 -29,12 -8,8 -12,20 -12,37l0 95 -28 0 0 -106c0,-13 -2,-22 -7,-28 -4,-7 -12,-10 -22,-10 -8,0 -15,2 -22,7 -6,4 -11,10 -14,18 -3,8 -5,19 -5,34l0 85 -28 0z"/>
  <path id="5" class="fil3" d="M11086 9265l0 -164 25 0 0 23c5,-8 12,-15 21,-19 8,-5 18,-8 29,-8 12,0 22,3 30,8 8,5 13,12 16,21 13,-19 30,-29 51,-29 17,0 29,5 38,14 9,9 13,23 13,42l0 112 -28 0 0 -103c0,-11 0,-19 -2,-24 -2,-5 -5,-9 -10,-12 -5,-3 -11,-5 -17,-5 -12,0 -21,4 -29,12 -8,8 -11,20 -11,37l0 95 -28 0 0 -106c0,-13 -3,-22 -7,-28 -5,-7 -12,-10 -22,-10 -8,0 -16,2 -22,7 -7,4 -12,10 -15,18 -3,8 -4,19 -4,34l0 85 -28 0z"/>
  <g>
   <line class="fil0 str1" x1="11475" y1="11670" x2="11475" y2= "10433" />
   <line class="fil0 str1" x1="9525" y1="11670" x2="9525" y2= "10433" />
   <g>
    <line class="fil1 str1" x1="12409" y1="10683" x2="11475" y2= "10683" />
    <polygon id="1" class="fil2" points="11849,10583 11475,10683 11849,10783 "/>
   </g>
   <g>
    <line class="fil1 str1" x1="9525" y1="10683" x2="8591" y2= "10683" />
    <polygon id="1" class="fil2" points="9151,10583 9525,10683 9151,10783 "/>
   </g>
  </g>
  <path class="fil3" d="M9753 10743l-37 0 0 -238c-9,9 -21,18 -35,26 -15,9 -28,15 -40,19l0 -36c21,-9 39,-21 55,-35 16,-14 27,-28 33,-41l24 0 0 305z"/>
  <path id="1" class="fil3" d="M9854 10672l36 -3c3,17 9,29 17,37 9,7 20,11 33,11 12,0 22,-2 30,-8 9,-5 16,-12 21,-21 6,-8 10,-20 14,-35 4,-15 6,-30 6,-46 0,-1 0,-4 0,-7 -8,12 -18,21 -31,29 -13,7 -27,11 -42,11 -25,0 -46,-9 -63,-27 -17,-19 -26,-43 -26,-72 0,-31 9,-56 27,-75 18,-18 41,-28 68,-28 20,0 38,6 54,16 16,11 29,26 37,46 9,19 13,48 13,85 0,39 -4,69 -13,92 -8,23 -21,41 -37,53 -17,12 -36,18 -59,18 -23,0 -43,-7 -58,-20 -15,-13 -24,-32 -27,-56zm152 -133c0,-22 -5,-39 -17,-51 -11,-12 -25,-19 -41,-19 -16,0 -31,7 -43,20 -12,14 -18,31 -18,53 0,19 6,35 17,47 12,12 26,18 43,18 18,0 32,-6 43,-18 11,-12 16,-29 16,-50z"/>
  <path id="2" class="fil3" d="M10104 10743l0 -43 43 0 0 43c0,15 -3,28 -9,38 -5,9 -14,17 -26,22l-10 -16c8,-4 13,-9 17,-15 4,-7 6,-17 6,-29l-21 0z"/>
  <path id="3" class="fil3" d="M10202 10663l39 -3c3,19 9,33 20,43 10,9 23,14 38,14 18,0 33,-6 46,-20 12,-14 18,-31 18,-54 0,-21 -6,-38 -17,-50 -12,-12 -28,-18 -47,-18 -12,0 -23,2 -33,8 -9,5 -17,13 -22,21l-35 -5 29 -156 150 0 0 36 -120 0 -17 82c19,-13 38,-19 58,-19 26,0 48,9 66,27 18,18 28,42 28,71 0,27 -8,51 -24,71 -20,24 -46,37 -80,37 -27,0 -50,-8 -67,-23 -18,-16 -28,-36 -30,-62z"/>
  <path id="4" class="fil3" d="M10565 10743l0 -220 34 0 0 31c6,-11 16,-19 27,-26 11,-6 24,-10 39,-10 16,0 30,4 40,10 10,7 18,17 22,29 17,-26 40,-39 68,-39 22,0 39,6 50,18 12,12 18,31 18,56l0 151 -37 0 0 -139c0,-14 -1,-25 -4,-32 -2,-6 -7,-11 -13,-15 -6,-5 -14,-6 -22,-6 -16,0 -29,5 -39,15 -10,10 -15,27 -15,49l0 128 -37 0 0 -143c0,-16 -4,-29 -10,-37 -6,-8 -16,-12 -29,-12 -11,0 -20,2 -29,8 -9,5 -16,13 -20,24 -4,11 -6,26 -6,46l0 114 -37 0z"/>
  <path id="5" class="fil3" d="M10918 10743l0 -220 33 0 0 31c7,-11 16,-19 28,-26 11,-6 24,-10 39,-10 16,0 29,4 40,10 10,7 17,17 22,29 17,-26 40,-39 68,-39 22,0 38,6 50,18 12,12 18,31 18,56l0 151 -37 0 0 -139c0,-14 -2,-25 -4,-32 -3,-6 -7,-11 -13,-15 -7,-5 -14,-6 -23,-6 -15,0 -28,5 -38,15 -11,10 -16,27 -16,49l0 128 -37 0 0 -143c0,-16 -3,-29 -9,-37 -6,-8 -16,-12 -30,-12 -10,0 -20,2 -29,8 -9,5 -15,13 -19,24 -4,11 -6,26 -6,46l0 114 -37 0z"/>
  <g>
   <line class="fil0 str1" x1="9450" y1="13560" x2="9450" y2= "12876" />
   <line class="fil0 str1" x1="8750" y1="13560" x2="8750" y2= "12876" />
   <g>
    <line class="fil1 str1" x1="10383" y1="13126" x2="9450" y2= "13126" />
    <polygon id="1" class="fil2" points="9824,13026 9450,13126 9824,13226 "/>
   </g>
   <g>
    <line class="fil1 str1" x1="8750" y1="13126" x2="7816" y2= "13126" />
    <polygon id="1" class="fil2" points="8376,13026 8750,13126 8376,13226 "/>
   </g>
  </g>
  <path class="fil3" d="M7830 12555l0 -36 196 0 0 29c-20,20 -39,48 -58,82 -19,34 -33,69 -44,105 -7,25 -12,53 -14,83l-38 0c0,-23 5,-52 14,-86 9,-34 22,-67 39,-98 16,-31 34,-58 53,-79l-148 0z"/>
  <path id="1" class="fil3" d="M8083 12818l0 -42 42 0 0 42c0,16 -2,29 -8,38 -6,10 -14,17 -26,22l-11 -16c8,-3 14,-8 18,-15 4,-6 6,-16 6,-29l-21 0z"/>
  <path id="2" class="fil3" d="M8181 12669c0,-36 3,-65 11,-87 7,-22 18,-39 33,-50 14,-12 32,-18 54,-18 17,0 31,3 43,10 12,6 23,16 30,28 8,12 15,27 19,45 5,18 7,42 7,72 0,35 -4,64 -11,86 -7,22 -18,39 -33,51 -14,12 -33,17 -55,17 -29,0 -52,-10 -68,-31 -20,-25 -30,-66 -30,-123zm38 0c0,50 6,83 17,99 12,17 26,25 43,25 17,0 32,-8 43,-25 12,-16 18,-49 18,-99 0,-50 -6,-83 -18,-99 -11,-17 -26,-25 -43,-25 -17,0 -31,7 -41,22 -13,18 -19,52 -19,102z"/>
  <path id="3" class="fil3" d="M8416 12669c0,-36 4,-65 11,-87 8,-22 18,-39 33,-50 14,-12 33,-18 55,-18 16,0 30,3 43,10 12,6 22,16 30,28 8,12 14,27 19,45 4,18 6,42 6,72 0,35 -3,64 -11,86 -7,22 -18,39 -32,51 -15,12 -33,17 -55,17 -29,0 -52,-10 -69,-31 -20,-25 -30,-66 -30,-123zm38 0c0,50 6,83 18,99 11,17 26,25 43,25 17,0 31,-8 43,-25 12,-16 17,-49 17,-99 0,-50 -5,-83 -17,-99 -12,-17 -26,-25 -44,-25 -17,0 -30,7 -41,22 -12,18 -19,52 -19,102z"/>
  <path id="4" class="fil3" d="M8779 12818l0 -219 34 0 0 31c7,-11 16,-20 27,-26 12,-7 25,-10 39,-10 16,0 30,3 40,10 11,7 18,16 22,28 18,-25 40,-38 68,-38 22,0 39,6 51,18 11,12 17,31 17,56l0 150 -37 0 0 -138c0,-15 -1,-25 -4,-32 -2,-7 -6,-12 -13,-16 -6,-4 -14,-6 -22,-6 -16,0 -28,5 -39,16 -10,10 -15,26 -15,49l0 127 -37 0 0 -142c0,-17 -3,-29 -9,-37 -6,-9 -16,-13 -30,-13 -11,0 -20,3 -29,8 -9,6 -15,14 -19,25 -4,10 -6,26 -6,45l0 114 -38 0z"/>
  <path id="5" class="fil3" d="M9132 12818l0 -219 33 0 0 31c7,-11 16,-20 28,-26 11,-7 24,-10 39,-10 16,0 29,3 40,10 10,7 18,16 22,28 17,-25 40,-38 68,-38 22,0 39,6 50,18 12,12 18,31 18,56l0 150 -37 0 0 -138c0,-15 -2,-25 -4,-32 -2,-7 -7,-12 -13,-16 -6,-4 -14,-6 -22,-6 -16,0 -29,5 -39,16 -10,10 -15,26 -15,49l0 127 -38 0 0 -142c0,-17 -3,-29 -9,-37 -6,-9 -16,-13 -30,-13 -10,0 -20,3 -29,8 -8,6 -15,14 -19,25 -4,10 -6,26 -6,45l0 114 -37 0z"/>
  <g>
   <line class="fil0 str1" x1="14458" y1="15950" x2="14458" y2= "16465" />
   <line class="fil0 str1" x1="12257" y1="15950" x2="12257" y2= "16465" />
   <g>
    <line class="fil1 str1" x1="15391" y1="16215" x2="14458" y2= "16215" />
    <polygon id="1" class="fil2" points="14831,16115 14458,16215 14831,16315 "/>
   </g>
   <g>
    <line class="fil1 str1" x1="12257" y1="16215" x2="11324" y2= "16215" />
    <polygon id="1" class="fil2" points="11884,16115 12257,16215 11884,16315 "/>
   </g>
  </g>
  <path class="fil3" d="M12649 16332l0 35 -201 0c0,-9 1,-17 4,-26 6,-13 14,-27 25,-40 12,-13 28,-28 49,-46 33,-27 55,-48 67,-64 11,-16 17,-31 17,-45 0,-14 -5,-27 -16,-37 -10,-10 -24,-15 -41,-15 -18,0 -32,5 -43,16 -11,11 -17,25 -17,44l-38 -3c3,-29 13,-51 30,-66 17,-15 40,-22 69,-22 29,0 52,8 69,24 17,16 25,36 25,60 0,12 -2,24 -7,36 -5,12 -13,24 -25,37 -11,13 -31,31 -57,53 -23,19 -37,32 -43,39 -7,6 -12,13 -16,20l149 0z"/>
  <path id="1" class="fil3" d="M12884 16332l0 35 -200 0c-1,-9 1,-17 4,-26 5,-13 13,-27 25,-40 11,-13 27,-28 48,-46 33,-27 55,-48 67,-64 12,-16 18,-31 18,-45 0,-14 -6,-27 -16,-37 -11,-10 -25,-15 -42,-15 -18,0 -32,5 -43,16 -11,11 -16,25 -16,44l-38 -3c2,-29 12,-51 29,-66 17,-15 40,-22 69,-22 29,0 52,8 69,24 17,16 26,36 26,60 0,12 -3,24 -8,36 -5,12 -13,24 -24,37 -12,13 -31,31 -58,53 -22,19 -37,32 -43,39 -6,6 -11,13 -16,20l149 0z"/>
  <path id="2" class="fil3" d="M12944 16367l0 -42 43 0 0 42c0,16 -3,29 -9,38 -5,10 -14,17 -26,22l-10 -16c8,-3 13,-8 17,-15 4,-7 6,-16 6,-29l-21 0z"/>
  <path id="3" class="fil3" d="M13042 16218c0,-36 4,-65 11,-87 7,-22 18,-39 33,-50 14,-12 33,-18 55,-18 16,0 30,3 43,10 12,6 22,16 30,28 8,12 14,27 18,45 5,18 7,42 7,72 0,35 -3,64 -11,86 -7,22 -18,39 -32,51 -15,11 -33,17 -55,17 -29,0 -52,-10 -69,-31 -20,-25 -30,-66 -30,-123zm38 0c0,50 6,83 18,99 11,17 26,25 43,25 17,0 31,-8 43,-25 11,-16 17,-49 17,-99 0,-50 -6,-83 -17,-100 -12,-16 -26,-24 -44,-24 -17,0 -30,7 -41,22 -12,18 -19,52 -19,102z"/>
  <path id="4" class="fil3" d="M13278 16218c0,-36 3,-65 11,-87 7,-22 18,-39 32,-50 15,-12 33,-18 55,-18 16,0 31,3 43,10 12,6 22,16 30,28 8,12 14,27 19,45 5,18 7,42 7,72 0,35 -4,64 -11,86 -7,22 -18,39 -33,51 -14,11 -33,17 -55,17 -29,0 -52,-10 -69,-31 -20,-25 -29,-66 -29,-123zm38 0c0,50 5,83 17,99 12,17 26,25 43,25 17,0 32,-8 43,-25 12,-16 18,-49 18,-99 0,-50 -6,-83 -18,-100 -11,-16 -26,-24 -43,-24 -17,0 -31,7 -41,22 -13,18 -19,52 -19,102z"/>
  <path id="5" class="fil3" d="M13641 16367l0 -219 33 0 0 31c7,-11 16,-20 28,-26 11,-7 24,-10 39,-10 16,0 29,3 40,10 10,7 17,16 22,28 17,-25 40,-38 68,-38 21,0 38,6 50,18 12,12 18,31 18,56l0 150 -38 0 0 -138c0,-15 -1,-26 -3,-32 -3,-7 -7,-12 -13,-16 -7,-4 -14,-6 -23,-6 -15,0 -28,5 -38,16 -11,10 -16,26 -16,49l0 127 -37 0 0 -142c0,-17 -3,-29 -9,-37 -6,-9 -16,-13 -30,-13 -10,0 -20,3 -29,8 -9,6 -15,14 -19,25 -4,10 -6,25 -6,45l0 114 -37 0z"/>
  <path id="6" class="fil3" d="M13993 16367l0 -219 34 0 0 31c7,-11 16,-20 27,-26 12,-7 25,-10 39,-10 16,0 30,3 40,10 11,7 18,16 22,28 18,-25 40,-38 68,-38 22,0 39,6 51,18 11,12 17,31 17,56l0 150 -37 0 0 -138c0,-15 -1,-26 -4,-32 -2,-7 -6,-12 -13,-16 -6,-4 -14,-6 -22,-6 -16,0 -28,5 -39,16 -10,10 -15,26 -15,49l0 127 -37 0 0 -142c0,-17 -3,-29 -9,-37 -6,-9 -16,-13 -30,-13 -11,0 -20,3 -29,8 -9,6 -15,14 -19,25 -4,10 -6,25 -6,45l0 114 -38 0z"/>
  <g>
   <line class="fil0 str1" x1="14708" y1="14000" x2="15281" y2= "14000" />
   <line class="fil0 str1" x1="14708" y1="15700" x2="15281" y2= "15700" />
   <g>
    <line class="fil1 str1" x1="15031" y1="13067" x2="15031" y2= "14000" />
    <polygon id="1" class="fil2" points="14931,13626 15031,14000 15131,13626 "/>
   </g>
   <g>
    <line class="fil1 str1" x1="15031" y1="15700" x2="15031" y2= "16634" />
    <polygon id="1" class="fil2" points="14931,16074 15031,15700 15131,16074 "/>
   </g>
  </g>
  <path class="fil3" d="M15183 15598l0 37 -237 0c9,9 17,21 26,35 8,15 15,28 19,39l-36 0c-10,-21 -22,-39 -36,-54 -14,-16 -27,-27 -40,-34l0 -23 304 0z"/>
  <path id="1" class="fil3" d="M14919 15500l-35 0 0 -196 29 0c20,19 47,38 82,57 34,19 69,34 105,44 25,7 53,12 83,14l0 38c-24,0 -53,-5 -86,-14 -34,-9 -67,-21 -98,-38 -32,-17 -58,-35 -80,-54l0 149z"/>
  <path id="2" class="fil3" d="M15183 15246l-42 0 0 -42 42 0c16,0 28,3 38,8 10,6 17,15 22,27l-16 10c-3,-8 -8,-14 -15,-17 -7,-4 -16,-6 -29,-7l0 21z"/>
  <path id="3" class="fil3" d="M15034 15149c-36,0 -65,-4 -87,-11 -22,-8 -39,-19 -51,-33 -11,-15 -17,-33 -17,-55 0,-16 3,-30 10,-43 6,-12 16,-22 28,-30 12,-8 27,-14 45,-19 18,-4 42,-7 72,-7 35,0 64,4 86,11 22,8 39,19 50,33 12,15 18,33 18,55 0,29 -10,52 -31,69 -25,20 -67,30 -123,30zm0 -38c50,0 83,-6 99,-18 17,-11 25,-26 25,-43 0,-17 -9,-31 -25,-43 -16,-12 -50,-17 -99,-17 -50,0 -83,5 -100,17 -16,12 -24,26 -24,43 0,18 7,31 21,41 19,13 53,20 103,20z"/>
  <path id="4" class="fil3" d="M15034 14913c-36,0 -65,-3 -87,-11 -22,-7 -39,-18 -51,-33 -11,-14 -17,-32 -17,-54 0,-17 3,-31 10,-43 6,-12 16,-23 28,-31 12,-7 27,-14 45,-18 18,-5 42,-7 72,-7 35,0 64,4 86,11 22,7 39,18 50,33 12,14 18,32 18,55 0,29 -10,52 -31,68 -25,20 -67,30 -123,30zm0 -38c50,0 83,-6 99,-17 17,-12 25,-26 25,-43 0,-17 -9,-32 -25,-43 -16,-12 -50,-18 -99,-18 -50,0 -83,6 -100,18 -16,11 -24,26 -24,43 0,17 7,31 21,41 19,13 53,19 103,19z"/>
  <path id="5" class="fil3" d="M15183 14550l-220 0 0 -33 31 0c-10,-7 -19,-16 -25,-28 -7,-11 -10,-24 -10,-39 0,-16 3,-29 10,-40 7,-10 16,-18 28,-22 -25,-17 -38,-40 -38,-68 0,-22 6,-39 18,-50 12,-12 30,-18 55,-18l151 0 0 37 -138 0c-15,0 -26,2 -32,4 -7,2 -12,7 -16,13 -4,6 -6,14 -6,23 0,15 5,28 15,38 11,10 27,15 50,15l127 0 0 38 -142 0c-17,0 -29,3 -38,9 -8,6 -12,16 -12,30 0,10 3,20 8,29 6,8 14,15 24,19 11,4 26,6 46,6l114 0 0 37z"/>
  <path id="6" class="fil3" d="M15183 14197l-220 0 0 -33 31 0c-10,-7 -19,-16 -25,-27 -7,-12 -10,-25 -10,-39 0,-17 3,-30 10,-40 7,-11 16,-18 28,-22 -25,-18 -38,-41 -38,-68 0,-22 6,-39 18,-51 12,-12 30,-18 55,-18l151 0 0 38 -138 0c-15,0 -26,1 -32,3 -7,3 -12,7 -16,14 -4,6 -6,13 -6,22 0,15 5,28 15,38 11,11 27,16 50,16l127 0 0 37 -142 0c-17,0 -29,3 -38,9 -8,6 -12,16 -12,30 0,10 3,20 8,29 6,9 14,15 24,19 11,4 26,6 46,6l114 0 0 37z"/>
  <g>
   <line class="fil0 str1" x1="10544" y1="16100" x2="10794" y2= "16100" />
   <line class="fil0 str1" x1="10544" y1="13600" x2="10794" y2= "13600" />
   <g>
    <line class="fil1 str1" x1="10544" y1="17034" x2="10544" y2= "16100" />
    <polygon id="1" class="fil2" points="10644,16474 10544,16100 10444,16474 "/>
   </g>
   <g>
    <line class="fil1 str1" x1="10544" y1="13600" x2="10544" y2= "12666" />
    <polygon id="1" class="fil2" points="10644,13226 10544,13600 10444,13226 "/>
   </g>
  </g>
  <path class="fil3" d="M10651 15559l36 0 0 200c-9,1 -18,-1 -26,-4 -14,-5 -27,-13 -41,-25 -13,-11 -28,-27 -45,-48 -27,-33 -49,-56 -65,-67 -15,-12 -30,-18 -44,-18 -15,0 -28,6 -38,16 -10,11 -15,25 -15,42 0,18 5,32 16,43 11,11 26,16 45,16l-4 38c-29,-2 -50,-12 -65,-29 -15,-18 -23,-40 -23,-69 0,-29 8,-52 24,-69 16,-17 37,-26 60,-26 13,0 24,3 36,8 12,5 24,13 37,24 13,12 31,31 54,58 18,22 31,36 38,43 6,6 13,11 20,16l0 -149z"/>
  <path id="1" class="fil3" d="M10607 15518l-3 -38c19,-3 33,-10 43,-21 9,-10 14,-23 14,-38 0,-18 -7,-33 -20,-45 -14,-13 -32,-19 -54,-19 -21,0 -38,6 -50,18 -12,12 -19,27 -19,47 0,12 3,22 9,32 5,10 12,17 21,23l-5 35 -156 -30 0 -150 36 0 0 121 82 16c-13,-18 -20,-37 -20,-57 0,-27 10,-49 28,-67 18,-18 42,-27 71,-27 27,0 51,8 71,24 24,19 37,46 37,79 0,28 -8,50 -24,68 -15,17 -36,27 -61,29z"/>
  <path id="2" class="fil3" d="M10687 15155l-220 0 0 -33 31 0c-11,-7 -20,-16 -26,-28 -7,-11 -10,-24 -10,-39 0,-16 4,-29 10,-40 7,-10 16,-17 29,-22 -26,-17 -39,-40 -39,-68 0,-22 6,-38 18,-50 12,-12 31,-18 56,-18l151 0 0 37 -139 0c-15,0 -25,2 -32,4 -6,3 -12,7 -16,13 -4,7 -6,14 -6,23 0,15 5,28 16,38 10,11 26,16 49,16l128 0 0 37 -143 0c-17,0 -29,3 -37,9 -9,6 -13,16 -13,30 0,10 3,20 9,29 5,9 13,15 24,19 10,4 26,6 46,6l114 0 0 37z"/>
  <path id="3" class="fil3" d="M10687 14803l-220 0 0 -34 31 0c-11,-7 -20,-16 -26,-27 -7,-12 -10,-25 -10,-39 0,-17 4,-30 10,-40 7,-11 16,-18 29,-22 -26,-18 -39,-40 -39,-68 0,-22 6,-39 18,-51 12,-11 31,-17 56,-17l151 0 0 37 -139 0c-15,0 -25,1 -32,4 -6,2 -12,6 -16,13 -4,6 -6,14 -6,22 0,16 5,28 16,39 10,10 26,15 49,15l128 0 0 37 -143 0c-17,0 -29,3 -37,9 -9,6 -13,16 -13,30 0,11 3,20 9,29 5,9 13,15 24,19 10,4 26,6 46,6l114 0 0 38z"/>
  <g>
   <line class="fil0 str1" x1="11475" y1="18100" x2="11475" y2= "19337" />
   <line class="fil0 str1" x1="9525" y1="18100" x2="9525" y2= "19337" />
   <g>
    <line class="fil1 str1" x1="12409" y1="19087" x2="11475" y2= "19087" />
    <polygon id="1" class="fil2" points="11849,18987 11475,19087 11849,19187 "/>
   </g>
   <g>
    <line class="fil1 str1" x1="9525" y1="19087" x2="8591" y2= "19087" />
    <polygon id="1" class="fil2" points="9151,18987 9525,19087 9151,19187 "/>
   </g>
  </g>
  <path class="fil3" d="M9753 19299l-38 0 0 -237c-9,9 -20,17 -35,26 -15,8 -28,15 -39,19l0 -36c21,-10 39,-22 54,-36 16,-13 27,-27 34,-40l24 0 0 304z"/>
  <path id="1" class="fil3" d="M9854 19229l35 -3c3,17 9,29 18,37 8,7 19,11 33,11 11,0 21,-3 30,-8 8,-5 15,-12 21,-21 5,-9 10,-21 14,-35 3,-15 5,-31 5,-46 0,-2 0,-4 0,-7 -7,11 -18,21 -30,28 -13,8 -27,11 -42,11 -25,0 -46,-9 -64,-27 -17,-18 -26,-42 -26,-72 0,-30 9,-55 27,-74 19,-19 41,-28 68,-28 20,0 38,5 54,16 17,10 29,26 38,45 8,20 12,48 12,86 0,38 -4,69 -12,92 -9,23 -21,40 -38,52 -16,12 -36,18 -58,18 -24,0 -43,-6 -58,-19 -15,-14 -24,-32 -27,-56zm152 -134c0,-21 -6,-38 -17,-50 -11,-13 -25,-19 -41,-19 -17,0 -31,7 -43,20 -13,14 -19,31 -19,52 0,20 6,35 18,47 11,12 26,18 43,18 17,0 31,-6 42,-18 11,-12 17,-28 17,-50z"/>
  <path id="2" class="fil3" d="M10104 19299l0 -42 42 0 0 42c0,16 -3,29 -8,38 -6,10 -15,17 -27,22l-10 -16c8,-3 14,-8 17,-15 4,-7 6,-16 7,-29l-21 0z"/>
  <path id="3" class="fil3" d="M10201 19220l39 -3c3,19 10,33 20,43 11,9 24,14 39,14 18,0 33,-7 45,-20 13,-14 19,-32 19,-54 0,-21 -6,-38 -18,-50 -12,-13 -27,-19 -47,-19 -12,0 -23,3 -32,9 -10,5 -17,12 -23,21l-35 -5 29 -156 151 0 0 36 -121 0 -16 81c18,-12 37,-19 57,-19 26,0 49,9 67,28 18,18 27,42 27,70 0,28 -8,52 -24,72 -19,24 -46,36 -79,36 -28,0 -50,-7 -68,-23 -17,-15 -27,-36 -30,-61z"/>
  <path id="4" class="fil3" d="M10565 19299l0 -219 33 0 0 31c7,-11 16,-20 27,-26 12,-7 25,-10 39,-10 17,0 30,3 40,10 11,7 18,16 22,28 18,-25 41,-38 68,-38 22,0 39,6 51,18 12,12 18,31 18,56l0 150 -38 0 0 -138c0,-15 -1,-25 -3,-32 -3,-7 -7,-12 -14,-16 -6,-4 -13,-6 -22,-6 -15,0 -28,5 -38,16 -11,10 -16,26 -16,49l0 127 -37 0 0 -142c0,-17 -3,-29 -9,-37 -6,-9 -16,-13 -30,-13 -10,0 -20,3 -29,8 -9,6 -15,14 -19,25 -4,10 -6,25 -6,45l0 114 -37 0z"/>
  <path id="5" class="fil3" d="M10917 19299l0 -219 34 0 0 31c6,-11 16,-20 27,-26 12,-7 25,-10 39,-10 16,0 30,3 40,10 10,7 18,16 22,28 17,-25 40,-38 68,-38 22,0 39,6 51,18 11,12 17,31 17,56l0 150 -37 0 0 -138c0,-15 -1,-25 -4,-32 -2,-7 -6,-12 -13,-16 -6,-4 -14,-6 -22,-6 -16,0 -29,5 -39,16 -10,10 -15,26 -15,49l0 127 -37 0 0 -142c0,-17 -3,-29 -10,-37 -6,-9 -16,-13 -29,-13 -11,0 -20,3 -29,8 -9,6 -16,14 -20,25 -4,10 -6,25 -6,45l0 114 -37 0z"/>
  <g>
   <line class="fil0 str1" x1="10250" y1="7850" x2="2131" y2= "7850" />
   <line class="fil0 str1" x1="10250" y1="14850" x2="2131" y2= "14850" />
   <g>
    <line class="fil1 str1" x1="2381" y1="10323" x2="2381" y2= "7850" />
    <polygon id="1" class="fil2" points="2481,8224 2381,7850 2281,8224 "/>
   </g>
   <g>
    <line class="fil1 str1" x1="2381" y1="14850" x2="2381" y2= "12417" />
    <polygon id="1" class="fil2" points="2481,14477 2381,14850 2281,14477 "/>
   </g>
  </g>
  <path class="fil3" d="M2493 10452l35 0 0 196 -28 0c-21,-19 -48,-38 -82,-57 -34,-19 -69,-34 -106,-44 -25,-7 -53,-12 -83,-14l0 -38c24,0 53,5 87,14 33,9 66,22 97,38 32,17 58,35 80,54l0 -149z"/>
  <path id="1" class="fil3" d="M2379 10686c35,0 64,3 86,11 22,7 39,18 51,33 12,14 17,32 17,54 0,17 -3,31 -9,43 -7,12 -16,23 -29,31 -12,7 -27,14 -45,18 -17,5 -41,7 -71,7 -36,0 -65,-4 -87,-11 -21,-7 -38,-18 -50,-33 -12,-14 -18,-32 -18,-55 0,-29 10,-52 31,-68 26,-20 67,-30 124,-30zm0 38c-50,0 -84,6 -100,17 -16,12 -25,26 -25,43 0,17 9,32 25,43 17,12 50,18 100,18 49,0 83,-6 99,-18 16,-11 25,-26 25,-43 0,-17 -8,-31 -22,-41 -19,-13 -53,-19 -102,-19z"/>
  <path id="2" class="fil3" d="M2229 10941l42 0 0 42 -42 0c-15,0 -28,-2 -38,-8 -9,-5 -17,-14 -22,-26l16 -10c4,7 9,13 15,17 7,4 17,6 29,6l0 -21z"/>
  <path id="3" class="fil3" d="M2379 11039c35,0 64,3 86,11 22,7 39,18 51,33 12,14 17,32 17,54 0,17 -3,31 -9,43 -7,13 -16,23 -29,31 -12,7 -27,14 -45,18 -17,5 -41,7 -71,7 -36,0 -65,-4 -87,-11 -21,-7 -38,-18 -50,-33 -12,-14 -18,-32 -18,-55 0,-29 10,-52 31,-68 26,-20 67,-30 124,-30zm0 38c-50,0 -84,6 -100,17 -16,12 -24,26 -24,43 0,18 8,32 24,44 17,11 50,17 100,17 49,0 83,-6 99,-17 16,-12 25,-27 25,-44 0,-17 -8,-31 -22,-41 -19,-13 -53,-19 -102,-19z"/>
  <path id="4" class="fil3" d="M2379 11274c35,0 64,4 86,11 22,8 39,19 51,33 12,15 17,33 17,55 0,16 -3,30 -9,43 -7,12 -16,22 -29,30 -12,8 -27,14 -45,19 -17,4 -41,7 -71,7 -36,0 -65,-4 -87,-11 -21,-8 -38,-19 -50,-33 -12,-15 -18,-33 -18,-55 0,-29 10,-52 31,-69 26,-20 67,-30 124,-30zm0 38c-50,0 -83,6 -100,18 -16,11 -24,26 -24,43 0,17 8,31 24,43 17,12 50,17 100,17 49,0 83,-5 99,-17 16,-12 25,-26 25,-44 0,-17 -8,-30 -22,-41 -19,-12 -53,-19 -102,-19z"/>
  <path id="5" class="fil3" d="M2229 11637l220 0 0 34 -31 0c11,7 19,16 26,27 6,12 9,25 9,39 0,17 -3,30 -10,40 -6,11 -16,18 -28,22 26,18 38,40 38,68 0,22 -5,39 -18,51 -12,12 -30,17 -55,17l-151 0 0 -37 138 0c15,0 26,-1 33,-3 6,-3 11,-7 15,-14 4,-6 6,-13 6,-22 0,-16 -5,-28 -15,-39 -10,-10 -27,-15 -49,-15l-128 0 0 -37 143 0c16,0 29,-3 37,-9 8,-6 12,-16 12,-30 0,-10 -2,-20 -8,-29 -5,-9 -13,-15 -24,-19 -11,-4 -26,-6 -46,-6l-114 0 0 -38z"/>
  <path id="6" class="fil3" d="M2229 11990l220 0 0 34 -31 0c11,6 19,16 26,27 6,11 10,24 10,39 0,16 -4,30 -11,40 -6,10 -16,18 -28,22 26,17 39,40 39,68 0,22 -6,39 -19,50 -12,12 -30,18 -55,18l-151 0 0 -37 138 0c15,0 26,-1 33,-4 6,-2 11,-7 15,-13 4,-6 6,-14 6,-22 0,-16 -5,-29 -15,-39 -10,-10 -27,-15 -49,-15l-128 0 0 -38 143 0c16,0 29,-3 37,-9 8,-6 12,-16 12,-29 0,-11 -2,-21 -8,-29 -5,-9 -13,-16 -24,-20 -11,-4 -26,-6 -46,-6l-114 0 0 -37z"/>
  <g>
   <line class="fil0 str1" x1="17500" y1="14600" x2="17500" y2= "7037" />
   <line class="fil0 str1" x1="10500" y1="14600" x2="10500" y2= "7037" />
   <g>
    <line class="fil1 str1" x1="15067" y1="7287" x2="17500" y2= "7287" />
    <polygon id="1" class="fil2" points="17127,7387 17500,7287 17127,7187 "/>
   </g>
   <g>
    <line class="fil1 str1" x1="10500" y1="7287" x2="12973" y2= "7287" />
    <polygon id="1" class="fil2" points="10873,7387 10500,7287 10873,7187 "/>
   </g>
  </g>
  <path class="fil3" d="M13103 7176l0 -36 196 0 0 29c-19,21 -39,48 -58,82 -19,34 -33,69 -44,105 -7,25 -12,53 -14,83l-38 0c0,-24 5,-53 14,-86 9,-34 22,-67 39,-98 16,-31 34,-58 53,-79l-148 0z"/>
  <path id="1" class="fil3" d="M13336 7289c0,-35 3,-64 11,-86 7,-22 18,-39 33,-50 14,-12 33,-18 55,-18 16,0 30,3 42,10 13,6 23,16 31,28 8,12 14,27 18,45 5,18 7,42 7,72 0,35 -4,64 -11,86 -7,22 -18,39 -33,50 -14,12 -33,18 -55,18 -29,0 -52,-10 -69,-31 -20,-26 -30,-67 -29,-124zm38 1c0,49 5,82 17,99 12,16 26,25 43,25 17,0 32,-9 43,-25 12,-17 18,-50 18,-99 0,-50 -6,-83 -17,-100 -12,-16 -26,-24 -44,-24 -17,0 -31,7 -41,21 -13,19 -19,53 -19,103z"/>
  <path id="2" class="fil3" d="M13591 7439l0 -42 42 0 0 42c0,16 -3,28 -8,38 -6,9 -15,17 -27,22l-10 -16c8,-3 14,-8 18,-15 3,-7 5,-16 6,-29l-21 0z"/>
  <path id="3" class="fil3" d="M13689 7289c0,-35 3,-64 11,-86 7,-22 18,-39 33,-50 14,-12 33,-18 55,-18 16,0 30,3 42,10 13,6 23,16 31,28 8,12 14,27 18,45 5,18 7,42 7,72 0,35 -4,64 -11,86 -7,22 -18,39 -33,50 -14,12 -33,18 -55,18 -29,0 -52,-10 -69,-31 -20,-26 -30,-67 -29,-124zm38 1c0,49 5,82 17,99 12,16 26,25 43,25 17,0 32,-9 43,-25 12,-17 18,-50 18,-99 0,-50 -6,-83 -17,-100 -12,-16 -26,-24 -44,-24 -17,0 -31,7 -41,21 -13,19 -19,53 -19,103z"/>
  <path id="4" class="fil3" d="M13924 7289c0,-35 4,-64 11,-86 8,-22 19,-39 33,-50 15,-12 33,-18 55,-18 16,0 31,3 43,10 12,6 22,16 30,28 8,12 14,27 19,45 4,18 7,42 7,72 0,35 -4,64 -12,86 -7,22 -18,39 -32,50 -15,12 -33,18 -55,18 -30,0 -53,-10 -69,-31 -20,-26 -30,-67 -30,-124zm38 1c0,49 6,82 18,99 11,16 26,25 43,25 17,0 31,-9 43,-25 11,-17 17,-50 17,-99 0,-50 -5,-83 -17,-100 -12,-16 -26,-24 -43,-24 -17,0 -31,7 -41,21 -13,19 -20,53 -20,103z"/>
  <path id="5" class="fil3" d="M14287 7439l1 -220 33 0 0 31c7,-10 16,-19 27,-26 12,-6 25,-9 39,-9 17,0 30,3 40,10 11,7 18,16 22,28 18,-25 40,-38 68,-38 22,0 39,6 50,18 12,12 18,31 18,56l0 150 -37 0 0 -138c0,-15 -1,-26 -4,-32 -2,-7 -7,-12 -13,-16 -6,-4 -14,-6 -22,-6 -16,0 -28,5 -39,15 -10,11 -15,27 -15,50l0 127 -37 0 0 -142c0,-17 -3,-29 -9,-38 -6,-8 -16,-12 -30,-12 -10,0 -20,3 -29,8 -9,6 -15,14 -19,24 -4,11 -6,26 -6,46l-1 114 -37 0z"/>
  <path id="6" class="fil3" d="M14640 7439l0 -220 33 0 0 31c7,-10 16,-19 28,-26 11,-6 24,-9 39,-9 16,0 30,3 40,10 10,7 18,16 22,28 17,-25 40,-38 68,-38 22,0 38,6 50,18 12,12 18,31 17,56l0 150 -37 0 0 -138c0,-15 -1,-26 -3,-32 -3,-7 -7,-12 -13,-16 -7,-4 -14,-6 -23,-6 -15,0 -28,5 -38,15 -10,11 -15,27 -15,50l-1 127 -37 0 0 -142c0,-17 -3,-29 -9,-38 -6,-8 -16,-12 -29,-12 -11,0 -21,3 -29,8 -9,6 -16,14 -20,24 -4,11 -6,26 -6,46l0 114 -37 0z"/>
  <g>
   <line class="fil0 str1" x1="9275" y1="21850" x2="2232" y2= "21850" />
   <line class="fil0 str1" x1="9275" y1="16725" x2="2232" y2= "16725" />
   <g>
    <line class="fil1 str1" x1="2482" y1="20318" x2="2482" y2= "21850" />
    <polygon id="1" class="fil2" points="2382,21477 2482,21850 2582,21477 "/>
   </g>
   <g>
    <line class="fil1 str1" x1="2482" y1="16725" x2="2482" y2= "18222" />
    <polygon id="1" class="fil2" points="2382,17098 2482,16725 2582,17098 "/>
   </g>
  </g>
  <path class="fil3" d="M2554 20189l-3 -39c19,-3 34,-10 43,-20 10,-11 15,-24 15,-39 0,-18 -7,-33 -21,-45 -13,-13 -31,-19 -53,-19 -22,0 -38,6 -51,18 -12,12 -18,27 -18,47 0,12 3,23 8,32 6,10 13,17 22,23l-5 35 -156 -29 0 -151 35 0 0 121 82 16c-13,-18 -19,-37 -19,-57 0,-26 9,-49 27,-67 19,-18 42,-27 71,-27 28,0 51,8 71,24 25,19 37,46 37,79 0,28 -8,50 -23,68 -16,17 -36,27 -62,30z"/>
  <path id="1" class="fil3" d="M2634 19813l0 38 -237 0c8,9 17,20 26,35 8,15 14,28 19,39l-36 0c-10,-21 -22,-39 -36,-54 -14,-16 -27,-27 -40,-34l0 -24 304 0z"/>
  <path id="2" class="fil3" d="M2634 19698l-42 0 0 -42 42 0c16,0 28,2 38,8 9,5 17,14 22,26l-16 10c-3,-8 -8,-13 -15,-17 -7,-4 -16,-6 -29,-6l0 21z"/>
  <path id="3" class="fil3" d="M2598 19405l36 0 0 201c-9,0 -18,-2 -26,-5 -13,-5 -27,-13 -40,-25 -13,-11 -29,-27 -46,-48 -27,-33 -48,-55 -64,-67 -16,-12 -31,-18 -45,-18 -15,0 -27,6 -37,16 -10,11 -15,25 -15,42 0,18 5,32 16,43 10,11 25,16 44,16l-4 38c-28,-2 -50,-12 -65,-29 -15,-17 -22,-40 -22,-69 0,-29 8,-52 24,-69 16,-17 36,-26 60,-26 12,0 24,3 36,8 11,5 24,13 37,25 13,11 31,30 53,57 19,22 32,37 38,43 7,6 14,12 20,16l0 -149z"/>
  <path id="4" class="fil3" d="M2554 19365l-3 -39c19,-3 34,-10 43,-20 10,-11 15,-24 15,-39 0,-18 -7,-33 -21,-45 -13,-12 -31,-19 -53,-19 -22,0 -38,6 -51,18 -12,12 -18,27 -18,47 0,12 3,23 8,32 6,10 13,17 22,23l-5 35 -156 -29 0 -151 35 0 0 121 82 16c-13,-18 -19,-37 -19,-57 0,-26 9,-49 27,-67 19,-18 42,-27 71,-27 28,0 51,8 71,24 25,19 37,46 37,79 0,28 -8,50 -23,68 -16,17 -36,27 -62,30z"/>
  <path id="5" class="fil3" d="M2634 19001l-220 0 0 -33 31 0c-10,-7 -19,-16 -26,-27 -6,-12 -9,-25 -9,-39 0,-17 3,-30 10,-40 7,-11 16,-18 28,-22 -26,-18 -38,-40 -38,-68 0,-22 6,-39 18,-51 12,-12 30,-18 55,-18l151 0 0 38 -138 0c-15,0 -26,1 -32,3 -7,3 -12,7 -16,14 -4,6 -6,13 -6,22 0,15 5,28 15,39 11,10 27,15 50,15l127 0 0 37 -143 0c-16,0 -28,3 -37,9 -8,6 -12,16 -12,30 0,10 3,20 8,29 6,9 14,15 24,19 11,4 26,6 46,6l114 0 0 37z"/>
  <path id="6" class="fil3" d="M2634 18649l-220 0 0 -34 31 0c-10,-6 -19,-16 -26,-27 -6,-11 -9,-24 -9,-39 0,-16 3,-30 10,-40 7,-10 16,-18 28,-22 -26,-17 -38,-40 -38,-68 0,-22 6,-39 18,-50 12,-12 30,-18 55,-18l151 0 0 37 -138 0c-15,0 -26,1 -32,4 -7,2 -12,7 -16,13 -4,6 -6,14 -6,22 0,16 5,29 15,39 11,10 27,15 50,15l127 0 0 37 -143 0c-16,0 -28,3 -37,10 -8,6 -12,16 -12,29 0,11 3,20 8,29 6,9 14,16 24,20 11,4 26,6 46,6l114 0 0 37z"/>
  <g>
   <line class="fil0 str1" x1="3500" y1="16625" x2="3500" y2= "22623" />
   <line class="fil0 str1" x1="9875" y1="16625" x2="9875" y2= "22623" />
   <g>
    <line class="fil1 str1" x1="5655" y1="22373" x2="3500" y2= "22373" />
    <polygon id="1" class="fil2" points="3873,22273 3500,22373 3873,22473 "/>
   </g>
   <g>
    <line class="fil1 str1" x1="9875" y1="22373" x2="7752" y2= "22373" />
    <polygon id="1" class="fil2" points="9502,22273 9875,22373 9502,22473 "/>
   </g>
  </g>
  <path class="fil3" d="M5979 22297l-37 2c-3,-14 -8,-25 -14,-31 -10,-11 -23,-16 -37,-16 -12,0 -23,3 -32,10 -12,8 -21,21 -28,37 -7,16 -10,40 -10,70 9,-14 20,-24 33,-30 13,-7 26,-10 40,-10 25,0 46,9 64,27 17,18 26,42 26,71 0,19 -4,37 -12,53 -8,16 -20,29 -34,38 -14,8 -31,13 -49,13 -31,0 -56,-12 -76,-35 -19,-22 -29,-60 -29,-112 0,-59 11,-102 32,-128 19,-23 45,-35 77,-35 24,0 43,7 59,20 15,14 24,32 27,56zm-152 130c0,13 2,25 8,37 5,12 13,21 23,27 9,6 20,9 30,9 16,0 30,-6 41,-19 11,-13 17,-30 17,-52 0,-21 -6,-37 -17,-49 -11,-12 -25,-18 -42,-18 -17,0 -31,6 -43,18 -12,12 -17,28 -17,47z"/>
  <path id="1" class="fil3" d="M6021 22445l37 -5c5,21 12,36 22,46 10,9 23,14 38,14 17,0 32,-6 44,-19 12,-12 18,-27 18,-45 0,-17 -5,-31 -17,-42 -11,-11 -25,-17 -42,-17 -7,0 -16,2 -27,5l5 -33c2,0 4,0 6,0 16,0 30,-4 43,-12 12,-8 19,-21 19,-38 0,-14 -5,-25 -14,-34 -10,-9 -21,-13 -36,-13 -15,0 -27,4 -36,13 -10,10 -16,23 -19,42l-37 -7c4,-25 15,-44 31,-58 16,-14 36,-21 60,-21 17,0 32,4 46,11 14,7 24,17 32,29 7,12 11,25 11,39 0,13 -4,25 -11,35 -7,11 -17,20 -31,26 18,4 32,13 42,26 10,13 15,29 15,49 0,26 -10,49 -29,67 -20,18 -44,28 -74,28 -26,0 -48,-8 -66,-24 -18,-16 -28,-37 -30,-62z"/>
  <path id="2" class="fil3" d="M6276 22526l0 -43 43 0 0 43c0,15 -3,28 -9,37 -5,10 -14,17 -26,23l-10 -16c8,-4 13,-9 17,-16 4,-6 6,-16 6,-28l-21 0z"/>
  <path id="3" class="fil3" d="M6376 22262l0 -36 196 0 0 29c-19,21 -38,48 -57,82 -19,34 -34,69 -44,105 -8,25 -12,53 -14,84l-39 0c1,-24 6,-53 15,-87 8,-34 21,-66 38,-98 17,-31 34,-58 53,-79l-148 0z"/>
  <path id="4" class="fil3" d="M6609 22446l39 -3c3,19 10,33 20,43 11,9 24,14 39,14 18,0 33,-7 45,-20 13,-14 19,-32 19,-54 0,-21 -6,-38 -18,-50 -12,-12 -27,-19 -47,-19 -12,0 -23,3 -32,9 -10,5 -17,12 -23,21l-35 -5 29 -156 151 0 0 36 -121 0 -16 82c18,-13 37,-20 57,-20 26,0 49,10 67,28 18,18 27,42 27,71 0,27 -8,51 -24,71 -19,24 -46,37 -79,37 -28,0 -50,-8 -68,-24 -17,-15 -27,-36 -30,-61z"/>
  <path id="5" class="fil3" d="M6973 22526l0 -220 33 0 0 31c7,-11 16,-20 28,-26 11,-7 24,-10 39,-10 16,0 29,4 40,10 10,7 17,16 21,29 18,-26 41,-39 69,-39 21,0 38,6 50,18 12,12 18,31 18,56l0 151 -38 0 0 -139c0,-15 -1,-25 -3,-32 -3,-6 -7,-12 -13,-16 -7,-4 -14,-6 -23,-6 -15,0 -28,5 -38,16 -11,10 -16,26 -16,49l0 128 -37 0 0 -143c0,-17 -3,-29 -9,-37 -6,-9 -16,-13 -30,-13 -10,0 -20,3 -29,9 -9,5 -15,13 -19,24 -4,10 -6,26 -6,46l0 114 -37 0z"/>
  <path id="6" class="fil3" d="M7325 22526l0 -220 34 0 0 31c7,-11 16,-20 27,-26 12,-7 25,-10 39,-10 16,0 30,4 40,10 11,7 18,16 22,29 18,-26 40,-39 68,-39 22,0 39,6 51,18 11,12 17,31 17,56l0 151 -37 0 0 -139c0,-15 -1,-25 -4,-32 -2,-6 -6,-12 -13,-16 -6,-4 -14,-6 -22,-6 -16,0 -28,5 -39,16 -10,10 -15,26 -15,49l0 128 -37 0 0 -143c0,-17 -3,-29 -9,-37 -6,-9 -16,-13 -30,-13 -11,0 -20,3 -29,9 -9,5 -15,13 -19,24 -4,10 -6,26 -6,46l0 114 -38 0z"/>
  <g>
   <line class="fil0 str1" x1="15380" y1="7850" x2="18746" y2= "7850" />
   <line class="fil0 str1" x1="15380" y1="11950" x2="18746" y2= "11950" />
   <g>
    <line class="fil1 str1" x1="18496" y1="8841" x2="18496" y2= "7850" />
    <polygon id="1" class="fil2" points="18596,8223 18496,7850 18396,8223 "/>
   </g>
   <g>
    <line class="fil1 str1" x1="18496" y1="11950" x2="18496" y2= "10949" />
    <polygon id="1" class="fil2" points="18596,11577 18496,11950 18396,11577 "/>
   </g>
  </g>
  <path class="fil3" d="M18648 10689l-73 0 0 131 -34 0 -196 -138 0 -31 196 0 0 -41 34 0 0 41 73 0 0 38zm-107 0l-136 0 136 95 0 -95z"/>
  <path id="1" class="fil3" d="M18648 10432l0 38 -237 0c8,9 17,20 25,35 9,14 15,28 19,39l-36 0c-9,-21 -21,-39 -35,-55 -14,-15 -28,-26 -41,-33l0 -24 305 0z"/>
  <path id="2" class="fil3" d="M18648 10317l-43 0 0 -43 43 0c15,0 28,3 38,9 9,5 17,14 22,26l-16 10c-4,-8 -9,-13 -15,-17 -7,-4 -17,-6 -29,-6l0 21z"/>
  <path id="3" class="fil3" d="M18498 10219c-36,0 -65,-4 -86,-11 -22,-7 -39,-18 -51,-33 -12,-14 -18,-33 -18,-55 0,-16 4,-30 10,-42 7,-13 16,-23 29,-31 12,-8 27,-14 45,-18 17,-5 41,-7 71,-7 36,0 64,3 86,11 22,7 39,18 51,32 12,15 18,33 18,55 0,29 -11,52 -31,69 -26,20 -67,30 -124,30zm0 -38c50,0 83,-6 100,-18 16,-11 24,-26 24,-43 0,-17 -8,-31 -24,-43 -17,-11 -50,-17 -100,-17 -50,0 -83,6 -99,17 -17,12 -25,26 -25,44 0,17 8,31 22,41 18,13 53,19 102,19z"/>
  <path id="4" class="fil3" d="M18498 9984c-36,0 -65,-4 -86,-11 -22,-8 -39,-19 -51,-33 -12,-15 -18,-33 -18,-55 0,-16 4,-31 10,-43 7,-12 16,-22 29,-30 12,-8 27,-14 45,-19 17,-4 41,-7 71,-7 36,0 64,4 86,11 22,7 39,18 51,33 12,14 18,33 18,55 0,29 -11,52 -31,69 -26,20 -67,30 -124,30zm0 -39c50,0 83,-5 100,-17 16,-12 24,-26 24,-43 0,-17 -8,-32 -24,-43 -17,-12 -50,-18 -100,-18 -50,0 -83,6 -99,18 -17,11 -25,26 -25,43 0,17 8,31 22,41 18,13 53,19 102,19z"/>
  <path id="5" class="fil3" d="M18648 9620l-220 0 0 -33 31 0c-11,-7 -19,-16 -26,-28 -6,-11 -10,-24 -10,-39 0,-16 4,-29 10,-40 7,-10 17,-17 29,-21 -26,-18 -39,-41 -39,-69 0,-21 6,-38 18,-50 12,-12 31,-18 56,-18l151 0 0 38 -139 0c-14,0 -25,1 -32,3 -6,3 -11,7 -15,13 -5,7 -6,14 -6,23 0,15 5,28 15,38 10,11 27,16 49,16l128 0 0 37 -143 0c-16,0 -29,3 -37,9 -8,6 -12,16 -12,30 0,10 2,20 8,29 5,9 13,15 24,19 11,4 26,6 46,6l114 0 0 37z"/>
  <path id="6" class="fil3" d="M18648 9268l-220 0 0 -34 31 0c-11,-7 -19,-16 -26,-27 -6,-12 -10,-25 -10,-39 0,-16 4,-30 10,-40 7,-11 17,-18 29,-22 -26,-18 -39,-40 -39,-68 0,-22 6,-39 18,-51 12,-11 31,-17 56,-17l151 0 0 37 -139 0c-14,0 -25,1 -32,4 -6,2 -11,6 -15,13 -5,6 -6,14 -6,22 0,16 5,29 15,39 10,10 27,15 49,15l128 0 0 37 -143 0c-16,0 -29,3 -37,9 -8,6 -12,16 -12,30 0,11 2,20 8,29 5,9 13,15 24,20 11,3 26,5 46,5l114 0 0 38z"/>
  <g>
   <line class="fil0 str1" x1="15000" y1="11603" x2="15000" y2= "11353" />
   <line class="fil0 str1" x1="12700" y1="11603" x2="12700" y2= "11353" />
   <g>
    <line class="fil1 str1" x1="15933" y1="11603" x2="15000" y2= "11603" />
    <polygon id="1" class="fil2" points="15373,11503 15000,11603 15373,11703 "/>
   </g>
   <g>
    <line class="fil1 str1" x1="12700" y1="11603" x2="11767" y2= "11603" />
    <polygon id="1" class="fil2" points="12327,11503 12700,11603 12327,11703 "/>
   </g>
  </g>
  <path class="fil3" d="M13141 11720l0 36 -200 0c-1,-9 1,-18 4,-26 5,-14 13,-27 25,-41 11,-13 27,-28 48,-45 33,-27 56,-49 67,-65 12,-15 18,-30 18,-44 0,-15 -6,-28 -16,-38 -11,-10 -25,-15 -42,-15 -18,0 -32,5 -43,16 -11,11 -16,26 -16,45l-38 -4c2,-29 12,-50 29,-65 18,-15 40,-23 69,-23 29,0 52,8 69,24 17,17 26,37 26,60 0,13 -3,24 -8,36 -5,12 -13,24 -24,37 -12,13 -31,31 -58,54 -22,18 -36,31 -43,38 -6,6 -11,13 -16,20l149 0z"/>
  <path id="1" class="fil3" d="M13182 11675l37 -5c4,21 11,36 22,46 10,9 22,14 37,14 18,0 33,-6 45,-18 12,-13 18,-28 18,-46 0,-17 -6,-31 -17,-42 -11,-11 -25,-17 -43,-17 -7,0 -15,2 -26,5l4 -33c3,0 5,0 6,0 16,0 30,-4 43,-12 13,-8 19,-21 19,-38 0,-14 -4,-25 -14,-34 -9,-9 -21,-13 -35,-13 -15,0 -27,4 -37,13 -9,10 -16,23 -18,42l-38 -7c5,-25 15,-44 31,-58 16,-14 37,-21 61,-21 16,0 31,4 45,11 14,7 25,17 32,29 8,12 11,25 11,39 0,13 -3,25 -10,35 -7,11 -18,20 -31,26 17,4 31,13 41,26 10,13 15,29 15,49 0,26 -10,49 -29,67 -19,18 -44,28 -73,28 -27,0 -49,-8 -66,-24 -18,-16 -28,-37 -30,-62z"/>
  <path id="2" class="fil3" d="M13437 11756l0 -43 42 0 0 43c0,15 -3,28 -8,37 -6,10 -14,17 -26,23l-11 -16c8,-4 14,-9 18,-16 3,-6 6,-16 6,-28l-21 0z"/>
  <path id="3" class="fil3" d="M13535 11606c0,-36 3,-65 11,-87 7,-22 18,-38 33,-50 14,-12 32,-18 54,-18 16,0 31,3 43,10 12,7 23,16 30,28 8,13 15,28 19,45 5,18 7,42 7,72 0,36 -4,64 -11,86 -7,22 -18,39 -33,51 -14,12 -33,18 -55,18 -29,0 -52,-11 -68,-32 -20,-25 -30,-66 -30,-123zm38 0c0,50 6,83 17,100 12,16 26,24 43,24 17,0 32,-8 43,-25 12,-16 18,-49 18,-99 0,-50 -6,-83 -18,-99 -11,-17 -26,-25 -43,-25 -17,0 -31,7 -41,22 -13,18 -19,52 -19,102z"/>
  <path id="4" class="fil3" d="M13770 11606c0,-36 4,-65 11,-87 7,-22 18,-38 33,-50 14,-12 33,-18 55,-18 16,0 30,3 43,10 12,7 22,16 30,28 8,13 14,28 18,45 5,18 7,42 7,72 0,36 -3,64 -11,86 -7,22 -18,39 -32,51 -15,12 -33,18 -55,18 -29,0 -52,-11 -69,-32 -20,-25 -30,-66 -30,-123zm38 0c0,50 6,83 18,100 11,16 26,24 43,24 17,0 31,-8 43,-25 11,-16 17,-49 17,-99 0,-50 -6,-83 -17,-99 -12,-17 -26,-25 -44,-25 -17,0 -30,7 -41,22 -12,18 -19,52 -19,102z"/>
  <path id="5" class="fil3" d="M14133 11756l0 -220 34 0 0 31c7,-11 16,-20 27,-26 12,-7 25,-10 39,-10 16,0 30,4 40,10 10,7 18,16 22,29 18,-26 40,-39 68,-39 22,0 39,6 51,18 11,12 17,31 17,56l0 151 -37 0 0 -139c0,-15 -1,-25 -4,-32 -2,-6 -6,-12 -13,-16 -6,-4 -14,-6 -22,-6 -16,0 -29,5 -39,16 -10,10 -15,26 -15,49l0 128 -37 0 0 -143c0,-17 -3,-29 -9,-37 -7,-8 -16,-13 -30,-13 -11,0 -20,3 -29,9 -9,5 -16,13 -20,24 -3,10 -5,26 -5,46l0 114 -38 0z"/>
  <path id="6" class="fil3" d="M14486 11756l0 -220 33 0 0 31c7,-11 16,-20 28,-26 11,-7 24,-10 39,-10 16,0 29,4 40,10 10,7 17,16 22,29 17,-26 40,-39 68,-39 22,0 39,6 50,18 12,12 18,31 18,56l0 151 -37 0 0 -139c0,-15 -2,-25 -4,-32 -2,-6 -7,-12 -13,-16 -7,-4 -14,-6 -23,-6 -15,0 -28,5 -38,16 -10,10 -15,26 -15,49l0 128 -38 0 0 -143c0,-17 -3,-29 -9,-37 -6,-8 -16,-13 -30,-13 -10,0 -20,3 -29,9 -8,5 -15,13 -19,24 -4,10 -6,26 -6,46l0 114 -37 0z"/>
  <g>
   <line class="fil0 str1" x1="15380" y1="17750" x2="18755" y2= "17750" />
   <line class="fil0 str1" x1="15380" y1="11950" x2="18755" y2= "11950" />
   <g>
    <line class="fil1 str1" x1="18505" y1="15880" x2="18505" y2= "17750" />
    <polygon id="1" class="fil2" points="18405,17377 18505,17750 18605,17377 "/>
   </g>
   <g>
    <line class="fil1 str1" x1="18505" y1="11950" x2="18505" y2= "13784" />
    <polygon id="1" class="fil2" points="18405,12323 18505,11950 18605,12323 "/>
   </g>
  </g>
  <path class="fil3" d="M18577 15751l-3 -39c19,-3 34,-9 43,-20 10,-10 15,-23 15,-38 0,-18 -7,-33 -21,-46 -13,-12 -31,-18 -53,-18 -22,0 -38,6 -51,17 -12,12 -18,28 -18,47 0,12 3,23 8,33 6,9 13,17 22,22l-6 35 -155 -29 0 -150 35 0 0 120 82 17c-13,-19 -19,-38 -19,-57 0,-27 9,-49 27,-67 19,-18 42,-28 71,-28 28,0 51,8 71,24 25,20 37,46 37,80 0,27 -8,50 -23,67 -16,18 -36,28 -62,30z"/>
  <path id="1" class="fil3" d="M18493 15458c-6,16 -14,27 -25,35 -10,7 -23,11 -37,11 -22,0 -41,-8 -56,-24 -15,-16 -22,-37 -22,-63 0,-26 7,-48 23,-64 15,-16 34,-24 56,-24 14,0 26,4 37,11 10,7 18,18 24,34 6,-19 15,-33 29,-43 13,-9 30,-14 48,-14 26,0 48,9 66,27 17,19 26,43 26,72 0,30 -9,54 -26,73 -18,18 -40,27 -67,27 -19,0 -36,-5 -49,-15 -14,-10 -23,-24 -27,-43zm-64 8c15,0 27,-5 36,-14 9,-9 13,-21 13,-36 0,-14 -4,-26 -13,-35 -9,-9 -20,-14 -33,-14 -14,0 -26,5 -35,14 -9,9 -14,21 -14,35 0,15 5,27 14,36 9,9 20,14 32,14zm141 12c10,0 20,-2 30,-7 10,-5 18,-13 23,-23 6,-10 9,-21 9,-32 0,-18 -6,-32 -18,-44 -11,-11 -26,-17 -43,-17 -18,0 -33,6 -45,18 -11,11 -17,26 -17,44 0,18 6,32 17,44 12,11 26,17 44,17z"/>
  <path id="2" class="fil3" d="M18657 15260l-42 0 0 -42 42 0c16,0 28,3 38,8 9,6 17,15 22,27l-16 10c-3,-8 -9,-14 -15,-17 -7,-4 -16,-6 -29,-7l0 21z"/>
  <path id="3" class="fil3" d="M18507 15163c-35,0 -64,-4 -86,-11 -22,-8 -39,-19 -51,-33 -12,-15 -17,-33 -17,-55 0,-16 3,-30 9,-43 7,-12 16,-22 29,-30 12,-8 27,-14 45,-19 17,-4 41,-7 71,-7 36,0 65,4 87,11 22,8 38,18 50,33 12,14 18,33 18,55 0,29 -10,52 -31,69 -26,20 -67,30 -124,30zm1 -38c49,0 83,-6 99,-18 16,-12 25,-26 25,-43 0,-17 -9,-31 -25,-43 -17,-12 -50,-18 -99,-18 -50,0 -84,6 -100,18 -16,11 -25,26 -25,43 0,17 8,31 22,41 19,13 53,20 103,20z"/>
  <path id="4" class="fil3" d="M18507 14927c-35,0 -64,-3 -86,-11 -22,-7 -39,-18 -51,-33 -12,-14 -17,-32 -17,-54 0,-17 3,-31 9,-43 7,-13 16,-23 29,-31 12,-8 27,-14 45,-18 17,-5 41,-7 71,-7 36,0 65,4 87,11 22,7 38,18 50,33 12,14 18,32 18,55 0,29 -10,52 -31,68 -26,20 -67,30 -124,30zm1 -38c49,0 83,-6 99,-17 16,-12 25,-26 25,-43 0,-18 -9,-32 -25,-44 -17,-11 -50,-17 -99,-17 -50,0 -84,6 -100,17 -16,12 -25,27 -25,44 0,17 8,31 22,41 19,13 53,19 103,19z"/>
  <path id="5" class="fil3" d="M18657 14564l-220 0 0 -33 31 0c-10,-7 -19,-16 -26,-28 -6,-11 -9,-24 -9,-39 0,-16 3,-30 10,-40 6,-10 16,-18 28,-22 -26,-17 -38,-40 -38,-68 0,-22 6,-39 18,-50 12,-12 30,-18 55,-18l151 0 0 37 -138 0c-15,0 -26,1 -32,4 -7,2 -12,7 -16,13 -4,6 -6,14 -6,22 0,16 5,29 15,39 10,10 27,15 49,15l128 0 0 38 -143 0c-16,0 -29,3 -37,9 -8,6 -12,16 -12,29 0,11 3,21 8,29 6,9 14,16 24,20 11,4 26,6 46,6l114 0 0 37z"/>
  <path id="6" class="fil3" d="M18657 14211l-220 0 0 -33 31 0c-10,-7 -19,-16 -26,-28 -6,-11 -9,-24 -9,-39 0,-16 3,-29 10,-40 6,-10 16,-17 28,-21 -26,-18 -38,-41 -38,-69 0,-21 6,-38 18,-50 12,-12 30,-18 55,-18l151 0 0 38 -138 0c-15,0 -26,1 -32,3 -7,3 -12,7 -16,13 -4,7 -6,14 -6,23 0,15 5,28 15,38 10,11 27,16 49,16l128 0 0 37 -143 0c-16,0 -29,3 -37,9 -8,6 -12,16 -12,30 0,10 3,20 8,29 6,9 14,15 24,19 11,4 26,6 46,6l114 0 0 37z"/>
  <g>
   <line class="fil0 str1" x1="3500" y1="15950" x2="3500" y2= "23572" />
   <line class="fil0 str1" x1="12257" y1="15950" x2="12257" y2= "23572" />
   <g>
    <line class="fil1 str1" x1="6848" y1="23322" x2="3500" y2= "23322" />
    <polygon id="1" class="fil2" points="3873,23222 3500,23322 3873,23422 "/>
   </g>
   <g>
    <line class="fil1 str1" x1="12257" y1="23322" x2="8944" y2= "23322" />
    <polygon id="1" class="fil2" points="11884,23222 12257,23322 11884,23422 "/>
   </g>
  </g>
  <path class="fil3" d="M7029 23301c-16,-6 -27,-14 -35,-24 -7,-11 -11,-23 -11,-38 0,-22 8,-41 24,-56 16,-15 37,-22 63,-22 26,0 48,8 64,23 16,15 24,34 24,56 0,14 -4,26 -11,37 -8,10 -19,18 -34,24 19,6 33,16 43,29 9,14 14,30 14,49 0,25 -9,47 -27,65 -19,18 -43,26 -73,26 -29,0 -53,-8 -72,-26 -18,-18 -27,-40 -27,-66 0,-20 5,-37 15,-50 10,-13 24,-22 43,-27zm-8 -63c0,14 5,26 14,35 9,9 21,14 36,14 14,0 26,-5 35,-14 9,-9 14,-20 14,-33 0,-14 -5,-25 -14,-35 -10,-9 -21,-14 -36,-14 -14,0 -26,5 -35,14 -9,9 -14,20 -14,33zm-12 140c0,10 2,21 7,31 5,10 13,17 23,23 10,5 20,8 32,8 18,0 32,-6 44,-17 11,-12 17,-26 17,-44 0,-18 -6,-33 -18,-44 -12,-12 -26,-18 -44,-18 -18,0 -33,6 -44,17 -11,12 -17,26 -17,44z"/>
  <path id="1" class="fil3" d="M7209 23202l0 -36 196 0 0 29c-20,20 -39,48 -58,82 -19,34 -33,69 -44,105 -7,25 -12,53 -14,83l-38 0c0,-24 5,-52 14,-86 9,-34 22,-67 39,-98 16,-32 34,-58 53,-79l-148 0z"/>
  <path id="2" class="fil3" d="M7462 23465l0 -42 42 0 0 42c0,16 -2,28 -8,38 -6,10 -14,17 -26,22l-11 -16c8,-3 14,-8 18,-15 3,-7 6,-16 6,-29l-21 0z"/>
  <path id="3" class="fil3" d="M7560 23386l39 -3c2,19 9,33 20,43 10,9 23,14 38,14 18,0 33,-7 46,-20 12,-14 18,-32 18,-54 0,-21 -6,-38 -18,-50 -11,-13 -27,-19 -46,-19 -13,0 -23,3 -33,8 -9,6 -17,13 -22,22l-36 -5 30 -156 150 0 0 36 -121 0 -16 81c18,-12 37,-19 57,-19 27,0 49,9 67,28 18,18 27,42 27,70 0,28 -8,52 -24,71 -19,25 -46,37 -79,37 -28,0 -50,-7 -68,-23 -17,-15 -27,-36 -29,-61z"/>
  <path id="4" class="fil3" d="M7923 23465l0 -219 33 0 0 31c7,-11 16,-20 28,-26 11,-7 24,-10 39,-10 16,0 29,3 40,10 10,7 17,16 22,28 17,-25 40,-38 68,-38 22,0 38,6 50,18 12,12 18,31 18,56l0 150 -37 0 0 -138c0,-15 -2,-26 -4,-32 -2,-7 -7,-12 -13,-16 -7,-4 -14,-6 -23,-6 -15,0 -28,5 -38,15 -10,11 -15,27 -15,50l0 127 -38 0 0 -142c0,-17 -3,-29 -9,-38 -6,-8 -16,-12 -30,-12 -10,0 -20,3 -29,8 -9,6 -15,14 -19,25 -4,10 -6,25 -6,45l0 114 -37 0z"/>
  <path id="5" class="fil3" d="M8276 23465l0 -219 33 0 0 31c7,-11 16,-20 27,-26 12,-7 25,-10 39,-10 17,0 30,3 40,10 11,7 18,16 22,28 18,-25 40,-38 68,-38 22,0 39,6 51,18 12,12 18,31 18,56l0 150 -38 0 0 -138c0,-15 -1,-26 -3,-32 -3,-7 -7,-12 -14,-16 -6,-4 -13,-6 -22,-6 -15,0 -28,5 -39,15 -10,11 -15,27 -15,50l0 127 -37 0 0 -142c0,-17 -3,-29 -9,-38 -6,-8 -16,-12 -30,-12 -10,0 -20,3 -29,8 -9,6 -15,14 -19,25 -4,10 -6,25 -6,45l0 114 -37 0z"/>
  <g>
   <line class="fil0 str1" x1="17500" y1="18130" x2="17500" y2= "22678" />
   <line class="fil0 str1" x1="15000" y1="18130" x2="15000" y2= "22678" />
   <g>
    <line class="fil1 str1" x1="18433" y1="22428" x2="17500" y2= "22428" />
    <polygon id="1" class="fil2" points="17873,22328 17500,22428 17873,22528 "/>
   </g>
   <g>
    <line class="fil1 str1" x1="15000" y1="22428" x2="14067" y2= "22428" />
    <polygon id="1" class="fil2" points="14627,22328 15000,22428 14627,22528 "/>
   </g>
  </g>
  <path class="fil3" d="M15541 22544l0 36 -200 0c-1,-9 1,-18 4,-26 5,-14 13,-27 25,-40 11,-14 27,-29 48,-46 33,-27 56,-48 67,-64 12,-16 18,-31 18,-45 0,-15 -6,-27 -16,-37 -11,-11 -25,-16 -42,-16 -18,0 -32,6 -43,16 -11,11 -16,26 -16,45l-38 -4c2,-28 12,-50 29,-65 18,-15 40,-23 69,-23 29,0 52,8 69,25 17,16 26,36 26,60 0,12 -3,24 -8,35 -5,12 -13,25 -24,38 -12,12 -31,30 -58,53 -22,19 -36,31 -43,38 -6,7 -11,13 -16,20l149 0z"/>
  <path id="1" class="fil3" d="M15582 22500l39 -3c2,19 9,34 20,43 10,10 23,14 38,14 18,0 33,-6 45,-20 13,-13 19,-31 19,-54 0,-21 -6,-38 -18,-50 -12,-12 -27,-18 -47,-18 -12,0 -22,3 -32,8 -10,6 -17,13 -23,21l-35 -5 30 -155 150 0 0 35 -121 0 -16 82c18,-13 37,-19 57,-19 27,0 49,9 67,27 18,19 27,42 27,71 0,27 -8,51 -24,71 -19,25 -46,37 -79,37 -28,0 -50,-8 -68,-23 -17,-16 -27,-36 -29,-62z"/>
  <path id="2" class="fil3" d="M15837 22580l0 -43 42 0 0 43c0,15 -3,28 -8,38 -6,9 -14,17 -26,22l-11 -16c8,-4 14,-9 18,-15 3,-7 6,-17 6,-29l-21 0z"/>
  <path id="3" class="fil3" d="M15935 22430c0,-36 3,-64 11,-86 7,-22 18,-39 33,-51 14,-12 32,-18 54,-18 16,0 31,4 43,10 12,7 23,16 30,29 8,12 15,27 19,45 5,17 7,41 7,71 0,36 -4,65 -11,86 -7,22 -18,39 -33,51 -14,12 -33,18 -55,18 -29,0 -52,-10 -68,-31 -20,-26 -30,-67 -30,-124zm38 0c0,50 6,83 17,100 12,16 26,24 43,24 17,0 32,-8 43,-24 12,-17 18,-50 18,-100 0,-49 -6,-83 -18,-99 -11,-16 -26,-25 -43,-25 -17,0 -31,8 -41,22 -13,18 -19,53 -19,102z"/>
  <path id="4" class="fil3" d="M16170 22430c0,-36 4,-64 11,-86 7,-22 18,-39 33,-51 14,-12 33,-18 55,-18 16,0 30,4 43,10 12,7 22,16 30,29 8,12 14,27 18,45 5,17 7,41 7,71 0,36 -3,65 -11,86 -7,22 -18,39 -32,51 -15,12 -33,18 -55,18 -29,0 -52,-10 -69,-31 -20,-26 -30,-67 -30,-124zm38 0c0,50 6,83 18,100 11,16 26,24 43,24 17,0 31,-8 43,-24 11,-17 17,-50 17,-100 0,-49 -6,-83 -17,-99 -12,-16 -26,-25 -44,-25 -17,0 -30,8 -41,22 -12,18 -19,53 -19,102z"/>
  <path id="5" class="fil3" d="M16533 22580l0 -220 34 0 0 31c7,-11 16,-19 27,-26 12,-6 25,-10 39,-10 16,0 30,4 40,11 10,6 18,16 22,28 18,-26 40,-39 68,-39 22,0 39,6 51,19 11,12 17,30 17,55l0 151 -37 0 0 -138c0,-15 -1,-26 -4,-33 -2,-6 -6,-11 -13,-15 -6,-4 -14,-6 -22,-6 -16,0 -29,5 -39,15 -10,10 -15,27 -15,49l0 128 -37 0 0 -143c0,-16 -3,-29 -9,-37 -7,-8 -16,-12 -30,-12 -11,0 -20,2 -29,8 -9,5 -16,13 -20,24 -3,11 -5,26 -5,46l0 114 -38 0z"/>
  <path id="6" class="fil3" d="M16886 22580l0 -220 33 0 0 31c7,-11 16,-19 28,-26 11,-6 24,-10 39,-10 16,0 29,4 40,11 10,6 17,16 22,28 17,-26 40,-39 68,-39 22,0 39,6 50,19 12,12 18,30 18,55l0 151 -37 0 0 -138c0,-15 -2,-26 -4,-33 -2,-6 -7,-11 -13,-15 -7,-4 -14,-6 -23,-6 -15,0 -28,5 -38,15 -10,10 -15,27 -15,49l0 128 -38 0 0 -143c0,-16 -3,-29 -9,-37 -6,-8 -16,-12 -30,-12 -10,0 -20,2 -29,8 -8,5 -15,13 -19,24 -4,11 -6,26 -6,46l0 114 -37 0z"/>
  <g>
   <line class="fil0 str1" x1="12941" y1="17880" x2="13191" y2= "17880" />
   <line class="fil0 str1" x1="12941" y1="17620" x2="13191" y2= "17620" />
   <g>
    <line class="fil1 str1" x1="12941" y1="18814" x2="12941" y2= "17880" />
    <polygon id="1" class="fil2" points="13041,18254 12941,17880 12841,18254 "/>
   </g>
   <g>
    <line class="fil1 str1" x1="12941" y1="17620" x2="12941" y2= "16687" />
    <polygon id="1" class="fil2" points="13041,17246 12941,17620 12841,17246 "/>
   </g>
  </g>
  <path class="fil3" d="M13482 18369l36 0 0 200c-9,1 -18,-1 -26,-4 -14,-5 -27,-13 -40,-25 -13,-11 -29,-27 -46,-48 -27,-33 -48,-56 -64,-67 -16,-12 -31,-18 -45,-18 -15,0 -27,6 -37,16 -10,11 -15,25 -15,42 0,18 5,32 16,43 10,11 25,16 44,16l-4 38c-28,-2 -50,-12 -65,-29 -15,-18 -22,-40 -22,-69 0,-29 8,-52 24,-69 16,-17 36,-26 60,-26 12,0 24,3 36,8 11,5 24,13 37,24 13,12 31,31 53,58 19,22 32,36 38,43 7,6 14,11 20,16l0 -149z"/>
  <path id="1" class="fil3" d="M13518 18309l-42 0 0 -43 42 0c16,0 28,3 38,9 9,5 17,14 22,26l-16 10c-3,-8 -9,-14 -15,-17 -7,-4 -16,-6 -29,-7l0 22z"/>
  <path id="2" class="fil3" d="M13289 18017l3 37c-15,4 -25,8 -32,14 -11,10 -16,23 -16,38 0,12 3,22 10,31 9,12 21,21 37,28 17,7 40,10 70,11 -13,-9 -23,-20 -30,-33 -7,-13 -10,-27 -10,-41 0,-25 9,-46 28,-64 18,-17 41,-26 70,-26 19,0 37,4 53,13 17,8 29,19 38,33 9,15 13,31 13,49 0,31 -11,57 -34,76 -23,20 -61,30 -113,30 -58,0 -101,-11 -128,-33 -23,-19 -34,-44 -34,-76 0,-24 6,-44 20,-59 13,-15 31,-25 55,-28zm131 153c13,0 25,-3 37,-8 11,-6 20,-13 26,-23 7,-10 10,-20 10,-31 0,-16 -7,-30 -19,-41 -13,-11 -30,-17 -52,-17 -21,0 -38,6 -50,17 -12,11 -18,25 -18,42 0,17 6,31 18,43 12,12 28,18 48,18z"/>
  <path id="3" class="fil3" d="M13368 17975c-35,0 -64,-3 -86,-11 -22,-7 -39,-18 -51,-32 -12,-15 -17,-33 -17,-55 0,-16 3,-31 9,-43 7,-12 16,-23 29,-30 12,-8 27,-15 45,-19 18,-5 41,-7 71,-7 36,0 65,4 87,11 22,7 38,18 50,33 12,14 18,33 18,55 0,29 -10,52 -31,68 -26,20 -67,30 -124,30zm1 -38c49,0 83,-5 99,-17 16,-12 25,-26 25,-43 0,-17 -9,-32 -25,-43 -17,-12 -50,-18 -99,-18 -50,0 -83,6 -100,18 -16,11 -24,26 -24,43 0,17 7,31 21,41 19,13 53,19 103,19z"/>
  <path id="4" class="fil3" d="M13518 17612l-220 0 0 -33 31 0c-10,-7 -19,-16 -26,-28 -6,-11 -9,-24 -9,-39 0,-16 3,-29 10,-40 7,-10 16,-17 28,-22 -26,-17 -38,-40 -38,-68 0,-22 6,-38 18,-50 12,-12 30,-18 55,-18l151 0 0 37 -138 0c-15,0 -26,2 -32,4 -7,2 -12,7 -16,13 -4,7 -6,14 -6,23 0,15 5,28 15,38 10,10 27,16 50,16l127 0 0 37 -143 0c-16,0 -29,3 -37,9 -8,6 -12,16 -12,30 0,10 3,20 8,29 6,9 14,15 24,19 11,4 26,6 46,6l114 0 0 37z"/>
  <path id="5" class="fil3" d="M13518 17260l-220 0 0 -34 31 0c-10,-7 -19,-16 -26,-27 -6,-12 -9,-25 -9,-39 0,-17 3,-30 10,-40 7,-11 16,-18 28,-22 -26,-18 -38,-40 -38,-68 0,-22 6,-39 18,-51 12,-12 30,-17 55,-17l151 0 0 37 -138 0c-15,0 -26,1 -32,3 -7,3 -12,7 -16,14 -4,6 -6,13 -6,22 0,16 5,28 15,39 10,10 27,15 50,15l127 0 0 37 -143 0c-16,0 -29,3 -37,9 -8,6 -12,16 -12,30 0,10 3,20 8,29 6,9 14,15 24,19 11,4 26,6 46,6l114 0 0 38z"/>
 </g>
</svg>
