  0
SECTION
  2
HEADER
  9
$ACADVER
  1
AC1014
  9
$HANDSEED
  5
FFFF
  9
$MEASUREMENT
 70
     1
  0
ENDSEC
  0
SECTION
  2
TABLES
  0
TABLE
  2
VPORT
  5
8
330
0
100
AcDbSymbolTable
 70
     4
  0
VPORT
  5
2E
330
8
100
AcDbSymbolTableRecord
100
AcDbViewportTableRecord
  2
*ACTIVE
 70
     0
 10
0.0
 20
0.0
 11
1.0
 21
1.0
 12
210.0
 22
148.5
 13
0.0
 23
0.0
 14
10.0
 24
10.0
 15
10.0
 25
10.0
 16
0.0
 26
0.0
 36
1.0
 17
0.0
 27
0.0
 37
0.0
 40
341.0
 41
1.24
 42
50.0
 43
0.0
 44
0.0
 50
0.0
 51
0.0
 71
     0
 72
   100
 73
     1
 74
     3
 75
     0
 76
     0
 77
     0
 78
     0
  0
ENDTAB
  0
TABLE
  2
LTYPE
  5
5
330
0
100
AcDbSymbolTable
 70
     1
  0
LTYPE
  5
14
330
5
100
AcDbSymbolTableRecord
100
AcDbLinetypeTableRecord
  2
BYBLOCK
 70
     0
  3

 72
    65
 73
     0
 40
0.0
  0
LTYPE
  5
15
330
5
100
AcDbSymbolTableRecord
100
AcDbLinetypeTableRecord
  2
BYLAYER
 70
     0
  3

 72
    65
 73
     0
 40
0.0
  0
LTYPE
  5
16
330
5
100
AcDbSymbolTableRecord
100
AcDbLinetypeTableRecord
  2
CONTINUOUS
 70
     0
  3
Solid line
 72
    65
 73
     0
 40
0.0
  0
ENDTAB
  0
TABLE
  2
LAYER
  5
2
100
AcDbSymbolTable
 70
2
  0
LAYER
  5
50
100
AcDbSymbolTableRecord
100
AcDbLayerTableRecord
  2
0
 70
0
  6
CONTINUOUS
  0
LAYER
  5
51
100
AcDbSymbolTableRecord
100
AcDbLayerTableRecord
  2
Ebene_1
 70
0
  6
CONTINUOUS
  0
ENDTAB
  0
TABLE
  2
STYLE
  5
3
330
0
100
AcDbSymbolTable
 70
     1
  0
STYLE
  5
11
330
3
100
AcDbSymbolTableRecord
100
AcDbTextStyleTableRecord
  2
STANDARD
 70
     0
 40
0.0
 41
1.0
 50
0.0
 71
     0
 42
2.5
  3
txt
  4

  0
ENDTAB
  0
TABLE
  2
VIEW
  5
6
330
0
100
AcDbSymbolTable
 70
     0
  0
ENDTAB
  0
TABLE
  2
UCS
  5
7
330
0
100
AcDbSymbolTable
 70
     0
  0
ENDTAB
  0
TABLE
  2
APPID
  5
9
330
0
100
AcDbSymbolTable
 70
     2
  0
APPID
  5
12
330
9
100
AcDbSymbolTableRecord
100
AcDbRegAppTableRecord
  2
ACAD
 70
     0
  0
ENDTAB
  0
TABLE
  2
DIMSTYLE
  5
A
330
0
100
AcDbSymbolTable
 70
     1
  0
DIMSTYLE
105
27
330
A
100
AcDbSymbolTableRecord
100
AcDbDimStyleTableRecord
  2
ISO-25
 70
     0
  3

  4

  5

  6

  7

 40
1.0
 41
2.5
 42
0.625
 43
3.75
 44
1.25
 45
0.0
 46
0.0
 47
0.0
 48
0.0
140
2.5
141
2.5
142
0.0
143
0.03937007874016
144
1.0
145
0.0
146
1.0
147
0.625
 71
     0
 72
     0
 73
     0
 74
     0
 75
     0
 76
     0
 77
     1
 78
     8
170
     0
171
     3
172
     1
173
     0
174
     0
175
     0
176
     0
177
     0
178
     0
270
     2
271
     2
272
     2
273
     2
274
     3
340
11
275
     0
280
     0
281
     0
282
     0
283
     0
284
     8
285
     0
286
     0
287
     3
288
     0
  0
ENDTAB
  0
TABLE
  2
BLOCK_RECORD
  5
1
330
0
100
AcDbSymbolTable
 70
     1
  0
BLOCK_RECORD
  5
1F
330
1
100
AcDbSymbolTableRecord
100
AcDbBlockTableRecord
  2
*MODEL_SPACE
  0
BLOCK_RECORD
  5
1B
330
1
100
AcDbSymbolTableRecord
100
AcDbBlockTableRecord
  2
*PAPER_SPACE
  0
ENDTAB
  0
ENDSEC
  0
SECTION
  2
BLOCKS
  0
BLOCK
  5
20
330
1F
100
AcDbEntity
  8
0
100
AcDbBlockBegin
  2
*MODEL_SPACE
 70
     0
 10
0.0
 20
0.0
 30
0.0
  3
*MODEL_SPACE
  1

  0
ENDBLK
  5
21
330
1F
100
AcDbEntity
  8
0
100
AcDbBlockEnd
  0
BLOCK
  5
1C
330
1B
100
AcDbEntity
 67
     1
  8
0
100
AcDbBlockBegin
  2
*PAPER_SPACE
  1

  0
ENDBLK
  5
1D
330
1B
100
AcDbEntity
 67
     1
  8
0
100
AcDbBlockEnd
  0
ENDSEC
  0
SECTION
  2
ENTITIES
  0
LWPOLYLINE
  5
100
100
AcDbEntity
  8
Ebene_1
 62
1
100
AcDbPolyline
 90
27
 70
1
 10
30.768416
 20
94.797620
 30
0.0
 10
30.768416
 20
234.797620
 30
0.0
 10
83.265216
 20
234.797620
 30
0.0
 10
88.265189
 20
234.797620
 30
0.0
 10
90.270167
 20
234.797620
 30
0.0
 10
91.015171
 20
234.797620
 30
0.0
 10
100.765120
 20
234.797620
 30
0.0
 10
104.770120
 20
234.797620
 30
0.0
 10
113.271120
 20
234.797620
 30
0.0
 10
121.015120
 20
234.797620
 30
0.0
 10
124.520120
 20
234.797620
 30
0.0
 10
144.016120
 20
234.797620
 30
0.0
 10
147.521120
 20
234.797620
 30
0.0
 10
170.768120
 20
234.797620
 30
0.0
 10
170.768120
 20
192.045620
 30
0.0
 10
170.768120
 20
173.299620
 30
0.0
 10
170.768120
 20
169.799620
 30
0.0
 10
170.768120
 20
159.794620
 30
0.0
 10
170.768120
 20
156.294620
 30
0.0
 10
170.768120
 20
152.294620
 30
0.0
 10
170.768120
 20
134.044620
 30
0.0
 10
170.768120
 20
98.794620
 30
0.0
 10
170.768120
 20
94.797620
 30
0.0
 10
100.765120
 20
94.797620
 30
0.0
 10
91.015171
 20
94.797620
 30
0.0
 10
88.265189
 20
94.797620
 30
0.0
 10
83.265216
 20
94.797620
 30
0.0
  0
LWPOLYLINE
  5
101
100
AcDbEntity
  8
Ebene_1
 62
1
100
AcDbPolyline
 90
102
 70
0
 10
94.955570
 20
142.614150
 30
0.0
 10
94.861770
 20
142.544650
 30
0.0
 10
94.581163
 20
142.336650
 30
0.0
 10
94.000156
 20
141.809740
 30
0.0
 10
93.872166
 20
141.693650
 30
0.0
 10
93.828666
 20
141.645650
 30
0.0
 10
93.229199
 20
140.984650
 30
0.0
 10
92.659202
 20
140.215650
 30
0.0
 10
92.167205
 20
139.394650
 30
0.0
 10
91.758218
 20
138.529650
 30
0.0
 10
91.435221
 20
137.628650
 30
0.0
 10
91.203221
 20
136.700650
 30
0.0
 10
91.062211
 20
135.753650
 30
0.0
 10
91.015211
 20
134.797650
 30
0.0
 10
91.062211
 20
133.841650
 30
0.0
 10
91.120011
 20
133.453650
 30
0.0
 10
91.203211
 20
132.894650
 30
0.0
 10
91.435211
 20
131.966650
 30
0.0
 10
91.758208
 20
131.065650
 30
0.0
 10
92.167195
 20
130.200650
 30
0.0
 10
92.659202
 20
129.379650
 30
0.0
 10
93.229189
 20
128.610650
 30
0.0
 10
93.872196
 20
127.901650
 30
0.0
 10
94.000186
 20
127.785570
 30
0.0
 10
94.581193
 20
127.258650
 30
0.0
 10
95.350187
 20
126.688650
 30
0.0
 10
96.171184
 20
126.196650
 30
0.0
 10
97.036178
 20
125.787650
 30
0.0
 10
97.937172
 20
125.464650
 30
0.0
 10
98.749169
 20
125.261650
 30
0.0
 10
98.865169
 20
125.232650
 30
0.0
 10
99.812163
 20
125.091650
 30
0.0
 10
100.765160
 20
125.044750
 30
0.0
 10
100.768160
 20
125.044600
 30
0.0
 10
101.724160
 20
125.091600
 30
0.0
 10
102.671160
 20
125.232600
 30
0.0
 10
102.787160
 20
125.261600
 30
0.0
 10
103.599160
 20
125.464610
 30
0.0
 10
104.500160
 20
125.787600
 30
0.0
 10
104.770160
 20
125.915270
 30
0.0
 10
105.365160
 20
126.196610
 30
0.0
 10
106.186160
 20
126.688600
 30
0.0
 10
106.955160
 20
127.258600
 30
0.0
 10
107.664160
 20
127.901610
 30
0.0
 10
108.307160
 20
128.610610
 30
0.0
 10
108.877160
 20
129.379610
 30
0.0
 10
109.369160
 20
130.200610
 30
0.0
 10
109.778160
 20
131.065610
 30
0.0
 10
110.101160
 20
131.966600
 30
0.0
 10
110.333160
 20
132.894610
 30
0.0
 10
110.384160
 20
133.237140
 30
0.0
 10
110.474160
 20
133.841600
 30
0.0
 10
110.521160
 20
134.797610
 30
0.0
 10
110.474160
 20
135.753610
 30
0.0
 10
110.384160
 20
136.358070
 30
0.0
 10
110.333160
 20
136.700600
 30
0.0
 10
110.101160
 20
137.628600
 30
0.0
 10
109.778160
 20
138.529590
 30
0.0
 10
109.369160
 20
139.394600
 30
0.0
 10
108.877160
 20
140.215600
 30
0.0
 10
108.307160
 20
140.984600
 30
0.0
 10
107.707690
 20
141.645600
 30
0.0
 10
107.664190
 20
141.693600
 30
0.0
 10
106.955190
 20
142.336600
 30
0.0
 10
106.186190
 20
142.906600
 30
0.0
 10
105.365190
 20
143.398600
 30
0.0
 10
104.770190
 20
143.679930
 30
0.0
 10
104.500190
 20
143.807590
 30
0.0
 10
103.599190
 20
144.130600
 30
0.0
 10
102.671190
 20
144.362600
 30
0.0
 10
102.192190
 20
144.433900
 30
0.0
 10
101.724180
 20
144.503600
 30
0.0
 10
100.768190
 20
144.549600
 30
0.0
 10
100.765190
 20
144.549450
 30
0.0
 10
99.812193
 20
144.503550
 30
0.0
 10
98.865199
 20
144.362550
 30
0.0
 10
98.020202
 20
144.151300
 30
0.0
 10
97.937202
 20
144.130600
 30
0.0
 10
97.246648
 20
143.883040
 30
0.0
 10
97.346548
 20
143.982940
 30
0.0
 10
97.352548
 20
143.988940
 30
0.0
 10
97.849545
 20
144.965940
 30
0.0
 10
97.972182
 20
145.741940
 30
0.0
 10
98.020582
 20
146.047940
 30
0.0
 10
97.849585
 20
147.129940
 30
0.0
 10
97.352588
 20
148.106940
 30
0.0
 10
96.577591
 20
148.881940
 30
0.0
 10
95.600597
 20
149.378940
 30
0.0
 10
94.518603
 20
149.549940
 30
0.0
 10
93.436609
 20
149.378940
 30
0.0
 10
92.459615
 20
148.881940
 30
0.0
 10
91.684618
 20
148.106940
 30
0.0
 10
91.187621
 20
147.129940
 30
0.0
 10
91.015621
 20
146.047940
 30
0.0
 10
91.064221
 20
145.741940
 30
0.0
 10
91.187581
 20
144.965940
 30
0.0
 10
91.684578
 20
143.988940
 30
0.0
 10
92.459575
 20
143.213940
 30
0.0
 10
93.436569
 20
142.716940
 30
0.0
 10
94.518563
 20
142.544940
 30
0.0
 10
94.828780
 20
142.594240
 30
0.0
 10
94.955990
 20
142.614440
 30
0.0
  0
LWPOLYLINE
  5
102
100
AcDbEntity
  8
Ebene_1
 62
1
100
AcDbPolyline
 90
102
 70
0
 10
104.290090
 20
185.712460
 30
0.0
 10
104.190190
 20
185.612560
 30
0.0
 10
104.184190
 20
185.606560
 30
0.0
 10
103.687190
 20
184.629560
 30
0.0
 10
103.515190
 20
183.547560
 30
0.0
 10
103.664930
 20
182.605560
 30
0.0
 10
103.687230
 20
182.465560
 30
0.0
 10
104.184230
 20
181.488560
 30
0.0
 10
104.959230
 20
180.713560
 30
0.0
 10
105.936220
 20
180.216560
 30
0.0
 10
107.018230
 20
180.044560
 30
0.0
 10
108.100230
 20
180.216560
 30
0.0
 10
109.077230
 20
180.713560
 30
0.0
 10
109.852230
 20
181.488560
 30
0.0
 10
110.349220
 20
182.465560
 30
0.0
 10
110.371520
 20
182.605560
 30
0.0
 10
110.384220
 20
182.685760
 30
0.0
 10
110.521230
 20
183.547590
 30
0.0
 10
110.384220
 20
184.409420
 30
0.0
 10
110.349220
 20
184.629590
 30
0.0
 10
109.852230
 20
185.606590
 30
0.0
 10
109.077230
 20
186.381590
 30
0.0
 10
108.100230
 20
186.878590
 30
0.0
 10
107.018230
 20
187.049590
 30
0.0
 10
106.706390
 20
187.000290
 30
0.0
 10
106.579770
 20
186.980290
 30
0.0
 10
106.673270
 20
187.049590
 30
0.0
 10
106.955240
 20
187.258590
 30
0.0
 10
107.664240
 20
187.901590
 30
0.0
 10
108.307240
 20
188.610590
 30
0.0
 10
108.877240
 20
189.379590
 30
0.0
 10
109.369240
 20
190.200590
 30
0.0
 10
109.651520
 20
190.797590
 30
0.0
 10
109.778240
 20
191.065590
 30
0.0
 10
110.101240
 20
191.966590
 30
0.0
 10
110.333240
 20
192.894590
 30
0.0
 10
110.384240
 20
193.237120
 30
0.0
 10
110.474240
 20
193.841590
 30
0.0
 10
110.521240
 20
194.797590
 30
0.0
 10
110.474240
 20
195.753590
 30
0.0
 10
110.384240
 20
196.358060
 30
0.0
 10
110.333240
 20
196.700590
 30
0.0
 10
110.101240
 20
197.628590
 30
0.0
 10
109.778240
 20
198.529590
 30
0.0
 10
109.560730
 20
198.989599
 30
0.0
 10
109.369240
 20
199.394599
 30
0.0
 10
108.877240
 20
200.215599
 30
0.0
 10
108.307240
 20
200.984599
 30
0.0
 10
107.664240
 20
201.693598
 30
0.0
 10
106.955240
 20
202.336598
 30
0.0
 10
106.186240
 20
202.906599
 30
0.0
 10
105.365240
 20
203.398598
 30
0.0
 10
104.500240
 20
203.807599
 30
0.0
 10
103.599240
 20
204.130599
 30
0.0
 10
103.515240
 20
204.151599
 30
0.0
 10
102.671240
 20
204.362598
 30
0.0
 10
102.192240
 20
204.433918
 30
0.0
 10
101.724230
 20
204.503598
 30
0.0
 10
100.768240
 20
204.550598
 30
0.0
 10
100.765240
 20
204.550450
 30
0.0
 10
99.812243
 20
204.503600
 30
0.0
 10
98.865249
 20
204.362600
 30
0.0
 10
97.937252
 20
204.130600
 30
0.0
 10
97.036248
 20
203.807600
 30
0.0
 10
96.171264
 20
203.398600
 30
0.0
 10
95.350267
 20
202.906600
 30
0.0
 10
94.581263
 20
202.336600
 30
0.0
 10
94.000266
 20
201.809685
 30
0.0
 10
93.872276
 20
201.693600
 30
0.0
 10
93.229269
 20
200.984600
 30
0.0
 10
92.659272
 20
200.215600
 30
0.0
 10
92.167275
 20
199.394600
 30
0.0
 10
91.758288
 20
198.529600
 30
0.0
 10
91.435281
 20
197.628600
 30
0.0
 10
91.203291
 20
196.700600
 30
0.0
 10
91.062281
 20
195.753600
 30
0.0
 10
91.015281
 20
194.797600
 30
0.0
 10
91.062281
 20
193.841600
 30
0.0
 10
91.203291
 20
192.894600
 30
0.0
 10
91.435281
 20
191.966600
 30
0.0
 10
91.758288
 20
191.065600
 30
0.0
 10
91.884998
 20
190.797600
 30
0.0
 10
92.167275
 20
190.200600
 30
0.0
 10
92.659272
 20
189.379600
 30
0.0
 10
93.229269
 20
188.610600
 30
0.0
 10
93.872276
 20
187.901600
 30
0.0
 10
94.000266
 20
187.785510
 30
0.0
 10
94.581263
 20
187.258600
 30
0.0
 10
95.350267
 20
186.688600
 30
0.0
 10
96.171264
 20
186.196600
 30
0.0
 10
97.036248
 20
185.787600
 30
0.0
 10
97.937252
 20
185.464600
 30
0.0
 10
98.865249
 20
185.232600
 30
0.0
 10
99.812243
 20
185.091600
 30
0.0
 10
100.765240
 20
185.044700
 30
0.0
 10
100.768240
 20
185.044550
 30
0.0
 10
101.724230
 20
185.091550
 30
0.0
 10
102.192240
 20
185.161250
 30
0.0
 10
102.671240
 20
185.232550
 30
0.0
 10
103.515240
 20
185.443550
 30
0.0
 10
103.599240
 20
185.464550
 30
0.0
 10
104.289790
 20
185.712110
 30
0.0
  0
LWPOLYLINE
  5
103
100
AcDbEntity
  8
Ebene_1
 62
1
100
AcDbPolyline
 90
22
 70
1
 10
96.905248
 20
152.906550
 30
0.0
 10
100.768240
 20
152.294550
 30
0.0
 10
104.631240
 20
152.906550
 30
0.0
 10
108.117240
 20
154.682550
 30
0.0
 10
110.883240
 20
157.448550
 30
0.0
 10
111.179240
 20
158.029550
 30
0.0
 10
112.659240
 20
160.934550
 30
0.0
 10
113.271240
 20
164.797550
 30
0.0
 10
112.659240
 20
168.660550
 30
0.0
 10
110.883240
 20
172.146550
 30
0.0
 10
108.117240
 20
174.912550
 30
0.0
 10
104.631240
 20
176.688550
 30
0.0
 10
100.768240
 20
177.300550
 30
0.0
 10
96.905248
 20
176.688550
 30
0.0
 10
93.419279
 20
174.912550
 30
0.0
 10
90.653284
 20
172.146550
 30
0.0
 10
88.877306
 20
168.660550
 30
0.0
 10
88.265309
 20
164.797550
 30
0.0
 10
88.877306
 20
160.934550
 30
0.0
 10
90.357297
 20
158.029550
 30
0.0
 10
90.653284
 20
157.448550
 30
0.0
 10
93.419279
 20
154.682550
 30
0.0
  0
LWPOLYLINE
  5
104
100
AcDbEntity
  8
Ebene_1
 62
1
100
AcDbPolyline
 90
25
 70
1
 10
115.401240
 20
163.130550
 30
0.0
 10
115.943240
 20
163.044550
 30
0.0
 10
116.485240
 20
163.130550
 30
0.0
 10
116.528240
 20
163.152450
 30
0.0
 10
116.973240
 20
163.379510
 30
0.0
 10
117.361240
 20
163.767510
 30
0.0
 10
117.610240
 20
164.255510
 30
0.0
 10
117.695240
 20
164.797510
 30
0.0
 10
117.610240
 20
165.339510
 30
0.0
 10
117.361240
 20
165.827510
 30
0.0
 10
116.973240
 20
166.215510
 30
0.0
 10
116.961440
 20
166.221510
 30
0.0
 10
116.485200
 20
166.464510
 30
0.0
 10
115.943200
 20
166.549510
 30
0.0
 10
115.401200
 20
166.464510
 30
0.0
 10
114.924950
 20
166.221510
 30
0.0
 10
114.913150
 20
166.215510
 30
0.0
 10
114.525150
 20
165.827510
 30
0.0
 10
114.480150
 20
165.739310
 30
0.0
 10
114.276150
 20
165.339510
 30
0.0
 10
114.190150
 20
164.797510
 30
0.0
 10
114.276150
 20
164.255510
 30
0.0
 10
114.480150
 20
163.855700
 30
0.0
 10
114.525150
 20
163.767500
 30
0.0
 10
114.913150
 20
163.379500
 30
0.0
  0
LWPOLYLINE
  5
105
100
AcDbEntity
  8
Ebene_1
 62
1
100
AcDbPolyline
 90
24
 70
1
 10
147.435160
 20
194.339490
 30
0.0
 10
147.248160
 20
194.705980
 30
0.0
 10
147.186160
 20
194.827490
 30
0.0
 10
147.120160
 20
194.893490
 30
0.0
 10
146.798160
 20
195.215490
 30
0.0
 10
146.310160
 20
195.464490
 30
0.0
 10
145.768160
 20
195.550490
 30
0.0
 10
145.226160
 20
195.464490
 30
0.0
 10
144.738160
 20
195.215490
 30
0.0
 10
144.416160
 20
194.893490
 30
0.0
 10
144.350160
 20
194.827490
 30
0.0
 10
144.101160
 20
194.339490
 30
0.0
 10
144.016160
 20
193.797490
 30
0.0
 10
144.101160
 20
193.255490
 30
0.0
 10
144.350160
 20
192.767490
 30
0.0
 10
144.738160
 20
192.379490
 30
0.0
 10
145.226160
 20
192.130490
 30
0.0
 10
145.768160
 20
192.045490
 30
0.0
 10
146.310160
 20
192.130490
 30
0.0
 10
146.798160
 20
192.379490
 30
0.0
 10
147.186160
 20
192.767490
 30
0.0
 10
147.248160
 20
192.889000
 30
0.0
 10
147.435160
 20
193.255490
 30
0.0
 10
147.521160
 20
193.797490
 30
0.0
  0
LWPOLYLINE
  5
106
100
AcDbEntity
  8
Ebene_1
 62
1
100
AcDbPolyline
 90
22
 70
1
 10
104.672160
 20
100.178480
 30
0.0
 10
104.752460
 20
100.685490
 30
0.0
 10
104.770160
 20
100.797490
 30
0.0
 10
104.672160
 20
101.416490
 30
0.0
 10
104.388160
 20
101.974490
 30
0.0
 10
103.945160
 20
102.417490
 30
0.0
 10
103.387160
 20
102.701490
 30
0.0
 10
102.768160
 20
102.799490
 30
0.0
 10
102.149160
 20
102.701490
 30
0.0
 10
101.591160
 20
102.417490
 30
0.0
 10
101.148160
 20
101.974490
 30
0.0
 10
100.864160
 20
101.416490
 30
0.0
 10
100.765160
 20
100.797490
 30
0.0
 10
100.783060
 20
100.685490
 30
0.0
 10
100.864160
 20
100.178480
 30
0.0
 10
101.148160
 20
99.620480
 30
0.0
 10
101.591160
 20
99.177480
 30
0.0
 10
102.149160
 20
98.893490
 30
0.0
 10
102.768160
 20
98.794490
 30
0.0
 10
103.387160
 20
98.893490
 30
0.0
 10
103.945160
 20
99.177480
 30
0.0
 10
104.388160
 20
99.620480
 30
0.0
  0
LWPOLYLINE
  5
107
100
AcDbEntity
  8
Ebene_1
 62
1
100
AcDbPolyline
 90
23
 70
1
 10
124.186160
 20
194.827490
 30
0.0
 10
124.120160
 20
194.893490
 30
0.0
 10
123.798160
 20
195.215490
 30
0.0
 10
123.310160
 20
195.464490
 30
0.0
 10
122.768160
 20
195.550490
 30
0.0
 10
122.226160
 20
195.464490
 30
0.0
 10
121.738160
 20
195.215490
 30
0.0
 10
121.416160
 20
194.893490
 30
0.0
 10
121.350160
 20
194.827490
 30
0.0
 10
121.101160
 20
194.339490
 30
0.0
 10
121.015160
 20
193.797490
 30
0.0
 10
121.101160
 20
193.255490
 30
0.0
 10
121.350160
 20
192.767490
 30
0.0
 10
121.738160
 20
192.379490
 30
0.0
 10
122.226160
 20
192.130490
 30
0.0
 10
122.672160
 20
192.060590
 30
0.0
 10
122.768160
 20
192.045490
 30
0.0
 10
123.310160
 20
192.130490
 30
0.0
 10
123.798160
 20
192.379490
 30
0.0
 10
124.186160
 20
192.767490
 30
0.0
 10
124.435160
 20
193.255490
 30
0.0
 10
124.520160
 20
193.797490
 30
0.0
 10
124.435160
 20
194.339490
 30
0.0
  0
LWPOLYLINE
  5
108
100
AcDbEntity
  8
Ebene_1
 62
1
100
AcDbPolyline
 90
27
 70
1
 10
84.709247
 20
174.463490
 30
0.0
 10
84.807547
 20
174.413490
 30
0.0
 10
85.686254
 20
173.966490
 30
0.0
 10
86.768248
 20
173.794490
 30
0.0
 10
87.850239
 20
173.966490
 30
0.0
 10
88.265239
 20
174.177600
 30
0.0
 10
88.728946
 20
174.413490
 30
0.0
 10
88.827246
 20
174.463490
 30
0.0
 10
89.602240
 20
175.238490
 30
0.0
 10
89.764360
 20
175.557190
 30
0.0
 10
90.099237
 20
176.215490
 30
0.0
 10
90.270237
 20
177.297490
 30
0.0
 10
90.269757
 20
177.300490
 30
0.0
 10
90.099237
 20
178.379490
 30
0.0
 10
89.602240
 20
179.356490
 30
0.0
 10
88.827246
 20
180.131490
 30
0.0
 10
88.265249
 20
180.417380
 30
0.0
 10
87.850249
 20
180.628490
 30
0.0
 10
86.768258
 20
180.800490
 30
0.0
 10
85.808261
 20
180.647880
 30
0.0
 10
85.686264
 20
180.628480
 30
0.0
 10
84.709267
 20
180.131480
 30
0.0
 10
83.934273
 20
179.356480
 30
0.0
 10
83.437276
 20
178.379480
 30
0.0
 10
83.265276
 20
177.297480
 30
0.0
 10
83.437276
 20
176.215480
 30
0.0
 10
83.934273
 20
175.238480
 30
0.0
  0
LWPOLYLINE
  5
109
100
AcDbEntity
  8
Ebene_1
 62
1
100
AcDbPolyline
 90
22
 70
1
 10
122.226180
 20
134.130480
 30
0.0
 10
122.768180
 20
134.044480
 30
0.0
 10
123.310180
 20
134.130480
 30
0.0
 10
123.798180
 20
134.379480
 30
0.0
 10
124.186180
 20
134.767480
 30
0.0
 10
124.435180
 20
135.255480
 30
0.0
 10
124.473780
 20
135.501480
 30
0.0
 10
124.520180
 20
135.797480
 30
0.0
 10
124.435180
 20
136.339480
 30
0.0
 10
124.186180
 20
136.827480
 30
0.0
 10
123.798180
 20
137.215480
 30
0.0
 10
123.310180
 20
137.464480
 30
0.0
 10
122.768180
 20
137.549480
 30
0.0
 10
122.226180
 20
137.464480
 30
0.0
 10
121.738180
 20
137.215480
 30
0.0
 10
121.350180
 20
136.827480
 30
0.0
 10
121.101180
 20
136.339480
 30
0.0
 10
121.015180
 20
135.797480
 30
0.0
 10
121.062180
 20
135.501480
 30
0.0
 10
121.101180
 20
135.255480
 30
0.0
 10
121.350180
 20
134.767480
 30
0.0
 10
121.738180
 20
134.379480
 30
0.0
  0
LWPOLYLINE
  5
10a
100
AcDbEntity
  8
Ebene_1
 62
1
100
AcDbPolyline
 90
22
 70
1
 10
100.864180
 20
228.178484
 30
0.0
 10
101.127310
 20
227.661482
 30
0.0
 10
101.148210
 20
227.620482
 30
0.0
 10
101.591210
 20
227.177481
 30
0.0
 10
102.149210
 20
226.893481
 30
0.0
 10
102.768210
 20
226.795481
 30
0.0
 10
103.387210
 20
226.893481
 30
0.0
 10
103.945210
 20
227.177481
 30
0.0
 10
104.388210
 20
227.620482
 30
0.0
 10
104.409110
 20
227.661482
 30
0.0
 10
104.672250
 20
228.178484
 30
0.0
 10
104.770250
 20
228.797484
 30
0.0
 10
104.672250
 20
229.416483
 30
0.0
 10
104.388250
 20
229.974482
 30
0.0
 10
103.945250
 20
230.417483
 30
0.0
 10
103.387250
 20
230.701483
 30
0.0
 10
102.768250
 20
230.800483
 30
0.0
 10
102.149250
 20
230.701483
 30
0.0
 10
101.591250
 20
230.417483
 30
0.0
 10
101.148250
 20
229.974482
 30
0.0
 10
100.864250
 20
229.416483
 30
0.0
 10
100.765250
 20
228.797484
 30
0.0
  0
LWPOLYLINE
  5
10b
100
AcDbEntity
  8
Ebene_1
 62
1
100
AcDbPolyline
 90
22
 70
1
 10
145.226250
 20
134.130480
 30
0.0
 10
145.768250
 20
134.044480
 30
0.0
 10
146.310250
 20
134.130480
 30
0.0
 10
146.798250
 20
134.379480
 30
0.0
 10
147.186250
 20
134.767480
 30
0.0
 10
147.435250
 20
135.255480
 30
0.0
 10
147.474250
 20
135.501480
 30
0.0
 10
147.521250
 20
135.797480
 30
0.0
 10
147.435250
 20
136.339480
 30
0.0
 10
147.186250
 20
136.827480
 30
0.0
 10
146.798250
 20
137.215480
 30
0.0
 10
146.310250
 20
137.464480
 30
0.0
 10
145.768250
 20
137.549480
 30
0.0
 10
145.226250
 20
137.464480
 30
0.0
 10
144.738250
 20
137.215480
 30
0.0
 10
144.350250
 20
136.827480
 30
0.0
 10
144.101250
 20
136.339480
 30
0.0
 10
144.016250
 20
135.797480
 30
0.0
 10
144.062650
 20
135.501480
 30
0.0
 10
144.101250
 20
135.255480
 30
0.0
 10
144.350250
 20
134.767480
 30
0.0
 10
144.738250
 20
134.379480
 30
0.0
  0
LWPOLYLINE
  5
10c
100
AcDbEntity
  8
Ebene_1
 62
1
100
AcDbPolyline
 90
9
 70
1
 10
140.345250
 20
169.799490
 30
0.0
 10
140.345250
 20
173.299490
 30
0.0
 10
121.015250
 20
173.299490
 30
0.0
 10
118.340250
 20
173.299490
 30
0.0
 10
118.340250
 20
163.044490
 30
0.0
 10
118.340250
 20
156.294490
 30
0.0
 10
121.015250
 20
156.294490
 30
0.0
 10
140.345250
 20
156.294490
 30
0.0
 10
140.345250
 20
159.794490
 30
0.0
  0
ENDSEC
  0
SECTION
  2
OBJECTS
  0
DICTIONARY
  5
C
330
0
100
AcDbDictionary
  3
ACAD_GROUP
350
D
  3
ACAD_MLINESTYLE
350
17
  0
DICTIONARY
  5
D
330
C
100
AcDbDictionary
  0
DICTIONARY
  5
1A
330
C
100
AcDbDictionary
  0
DICTIONARY
  5
17
330
C
100
AcDbDictionary
  3
STANDARD
350
18
  0
DICTIONARY
  5
19
330
C
100
AcDbDictionary
  0
ENDSEC
  0
EOF
